<svg width="32" height="32" viewBox="0 0 32 32" fill="none" xmlns="http://www.w3.org/2000/svg">
<path d="M7.33023 19.5V18.072H8.98623V13.668H7.55823V12.576C7.97423 12.496 8.32623 12.4 8.61423 12.288C8.90223 12.176 9.18223 12.04 9.45423 11.88H10.7502V18.072H12.1782V19.5H7.33023ZM15.9861 19.644C15.6021 19.644 15.2461 19.596 14.9181 19.5C14.5981 19.396 14.3181 19.252 14.0781 19.068C13.8461 18.884 13.6621 18.664 13.5261 18.408C13.3981 18.152 13.3341 17.868 13.3341 17.556C13.3341 17.092 13.4581 16.712 13.7061 16.416C13.9621 16.12 14.2701 15.876 14.6301 15.684V15.636C14.3341 15.412 14.0901 15.16 13.8981 14.88C13.7061 14.592 13.6101 14.244 13.6101 13.836C13.6101 13.516 13.6701 13.228 13.7901 12.972C13.9101 12.708 14.0781 12.484 14.2941 12.3C14.5101 12.116 14.7661 11.976 15.0621 11.88C15.3661 11.784 15.6941 11.736 16.0461 11.736C16.3901 11.736 16.7061 11.788 16.9941 11.892C17.2821 11.988 17.5261 12.128 17.7261 12.312C17.9261 12.488 18.0821 12.708 18.1941 12.972C18.3061 13.228 18.3621 13.512 18.3621 13.824C18.3621 14.192 18.2621 14.52 18.0621 14.808C17.8621 15.088 17.6301 15.316 17.3661 15.492V15.54C17.7341 15.74 18.0461 15.996 18.3021 16.308C18.5581 16.62 18.6861 17.028 18.6861 17.532C18.6861 17.836 18.6221 18.116 18.4941 18.372C18.3661 18.628 18.1821 18.852 17.9421 19.044C17.7101 19.228 17.4261 19.376 17.0901 19.488C16.7621 19.592 16.3941 19.644 15.9861 19.644ZM16.4661 15.06C16.7781 14.7 16.9341 14.328 16.9341 13.944C16.9341 13.648 16.8501 13.412 16.6821 13.236C16.5221 13.052 16.2981 12.96 16.0101 12.96C15.7781 12.96 15.5781 13.032 15.4101 13.176C15.2421 13.32 15.1581 13.54 15.1581 13.836C15.1581 14.148 15.2781 14.392 15.5181 14.568C15.7581 14.744 16.0741 14.908 16.4661 15.06ZM16.0221 18.42C16.3181 18.42 16.5621 18.344 16.7541 18.192C16.9461 18.032 17.0421 17.792 17.0421 17.472C17.0421 17.304 17.0021 17.16 16.9221 17.04C16.8501 16.92 16.7421 16.812 16.5981 16.716C16.4541 16.612 16.2821 16.516 16.0821 16.428C15.8901 16.34 15.6741 16.244 15.4341 16.14C15.2661 16.3 15.1261 16.484 15.0141 16.692C14.9021 16.9 14.8461 17.12 14.8461 17.352C14.8461 17.688 14.9621 17.952 15.1941 18.144C15.4261 18.328 15.7021 18.42 16.0221 18.42ZM21.6899 18.372V16.164H19.5779V14.916H21.6899V12.708H22.9859V14.916H25.0979V16.164H22.9859V18.372H21.6899Z" fill="white"/>
<circle cx="16" cy="16" r="15" stroke="white" stroke-width="2"/>
</svg>
