<svg width="95" height="12" viewBox="0 0 95 12" fill="none" xmlns="http://www.w3.org/2000/svg">
<path d="M6.97754 6.91211H7.97559C7.97559 7.6276 7.77051 8.16536 7.36035 8.52539C6.95475 8.88086 6.40332 9.05859 5.70605 9.05859C5.22298 9.05859 4.80371 8.94694 4.44824 8.72363C4.09733 8.50033 3.82389 8.19043 3.62793 7.79395C3.43652 7.39746 3.34082 6.93717 3.34082 6.41309V5.62695C3.34082 5.10286 3.43652 4.64258 3.62793 4.24609C3.82389 3.84961 4.09733 3.53971 4.44824 3.31641C4.80371 3.0931 5.22298 2.98145 5.70605 2.98145C6.40332 2.98145 6.95703 3.15918 7.36719 3.51465C7.77734 3.87012 7.98242 4.4056 7.98242 5.12109H6.98438C6.98438 4.66992 6.875 4.34635 6.65625 4.15039C6.44206 3.95443 6.12533 3.85645 5.70605 3.85645C5.40527 3.85645 5.15234 3.93164 4.94727 4.08203C4.74219 4.23242 4.58724 4.44206 4.48242 4.71094C4.3776 4.97526 4.3252 5.27832 4.3252 5.62012V6.41309C4.3252 6.75944 4.3776 7.06706 4.48242 7.33594C4.58724 7.60026 4.74219 7.80762 4.94727 7.95801C5.15234 8.1084 5.40527 8.18359 5.70605 8.18359C6.12533 8.18359 6.44206 8.08561 6.65625 7.88965C6.87044 7.69368 6.97754 7.36784 6.97754 6.91211ZM1.73438 6.0166C1.73438 6.62272 1.83919 7.18783 2.04883 7.71191C2.25846 8.236 2.55013 8.69401 2.92383 9.08594C3.29753 9.47786 3.73047 9.7832 4.22266 10.002C4.71484 10.2207 5.24121 10.3301 5.80176 10.3301C6.3623 10.3301 6.88639 10.2207 7.37402 10.002C7.86621 9.7832 8.29688 9.47786 8.66602 9.08594C9.03971 8.69401 9.33138 8.236 9.54102 7.71191C9.75065 7.18783 9.85547 6.62272 9.85547 6.0166C9.85547 5.40592 9.75065 4.84082 9.54102 4.32129C9.33138 3.80176 9.03971 3.34831 8.66602 2.96094C8.29688 2.56901 7.86621 2.26595 7.37402 2.05176C6.88639 1.83301 6.3623 1.72363 5.80176 1.72363C5.24121 1.72363 4.71484 1.83301 4.22266 2.05176C3.73047 2.26595 3.29753 2.56901 2.92383 2.96094C2.55013 3.34831 2.25846 3.80176 2.04883 4.32129C1.83919 4.84082 1.73438 5.40592 1.73438 6.0166ZM0.948242 6.0166C0.948242 5.29199 1.07357 4.61979 1.32422 4C1.57487 3.38021 1.9235 2.84017 2.37012 2.37988C2.81673 1.91504 3.33171 1.55501 3.91504 1.2998C4.50293 1.04004 5.13184 0.910156 5.80176 0.910156C6.47168 0.910156 7.09831 1.04004 7.68164 1.2998C8.26953 1.55501 8.78451 1.91504 9.22656 2.37988C9.67318 2.84017 10.0218 3.38021 10.2725 4C10.5231 4.61979 10.6484 5.29199 10.6484 6.0166C10.6484 6.74121 10.5231 7.41341 10.2725 8.0332C10.0218 8.65299 9.67318 9.19759 9.22656 9.66699C8.78451 10.1318 8.26953 10.4941 7.68164 10.7539C7.09831 11.0137 6.47168 11.1436 5.80176 11.1436C5.13184 11.1436 4.50293 11.0137 3.91504 10.7539C3.33171 10.4941 2.81673 10.1318 2.37012 9.66699C1.9235 9.19759 1.57487 8.65299 1.32422 8.0332C1.07357 7.41341 0.948242 6.74121 0.948242 6.0166ZM22.1465 9.96094V11H15.6318V10.0908L18.8926 6.46094C19.2936 6.01432 19.6035 5.63607 19.8223 5.32617C20.0456 5.01172 20.2005 4.73145 20.2871 4.48535C20.3783 4.2347 20.4238 3.97949 20.4238 3.71973C20.4238 3.3916 20.3555 3.09538 20.2188 2.83105C20.0866 2.56217 19.8906 2.34798 19.6309 2.18848C19.3711 2.02897 19.0566 1.94922 18.6875 1.94922C18.2454 1.94922 17.8763 2.03581 17.5801 2.20898C17.2884 2.3776 17.0697 2.61458 16.9238 2.91992C16.778 3.22526 16.7051 3.57617 16.7051 3.97266H15.4404C15.4404 3.41211 15.5635 2.89941 15.8096 2.43457C16.0557 1.96973 16.4202 1.60059 16.9033 1.32715C17.3864 1.04915 17.9811 0.910156 18.6875 0.910156C19.3164 0.910156 19.8542 1.02181 20.3008 1.24512C20.7474 1.46387 21.0892 1.77376 21.3262 2.1748C21.5677 2.57129 21.6885 3.03613 21.6885 3.56934C21.6885 3.861 21.6383 4.15723 21.5381 4.45801C21.4424 4.75423 21.3079 5.05046 21.1348 5.34668C20.9661 5.6429 20.7679 5.93457 20.54 6.22168C20.3167 6.50879 20.0775 6.79134 19.8223 7.06934L17.1562 9.96094H22.1465ZM29.748 5.23047V6.74805C29.748 7.5638 29.6751 8.25195 29.5293 8.8125C29.3835 9.37305 29.1738 9.82422 28.9004 10.166C28.627 10.5078 28.2965 10.7562 27.9092 10.9111C27.5264 11.0615 27.0934 11.1367 26.6104 11.1367C26.2275 11.1367 25.8743 11.0889 25.5508 10.9932C25.2272 10.8975 24.9355 10.7448 24.6758 10.5352C24.4206 10.321 24.2018 10.043 24.0195 9.70117C23.8372 9.35938 23.6982 8.94466 23.6025 8.45703C23.5068 7.9694 23.459 7.39974 23.459 6.74805V5.23047C23.459 4.41471 23.5319 3.73112 23.6777 3.17969C23.8281 2.62826 24.04 2.1862 24.3135 1.85352C24.5869 1.51628 24.915 1.27474 25.2979 1.12891C25.6852 0.983073 26.1182 0.910156 26.5967 0.910156C26.984 0.910156 27.3395 0.958008 27.6631 1.05371C27.9912 1.14486 28.2829 1.29297 28.5381 1.49805C28.7933 1.69857 29.0098 1.96745 29.1875 2.30469C29.3698 2.63737 29.5088 3.04525 29.6045 3.52832C29.7002 4.01139 29.748 4.57878 29.748 5.23047ZM28.4766 6.95312V5.01855C28.4766 4.57194 28.4492 4.18001 28.3945 3.84277C28.3444 3.50098 28.2692 3.20931 28.1689 2.96777C28.0687 2.72624 27.9411 2.53027 27.7861 2.37988C27.6357 2.22949 27.4603 2.12012 27.2598 2.05176C27.0638 1.97884 26.8428 1.94238 26.5967 1.94238C26.2959 1.94238 26.0293 1.99935 25.7969 2.11328C25.5645 2.22266 25.3685 2.39811 25.209 2.63965C25.054 2.88118 24.9355 3.19792 24.8535 3.58984C24.7715 3.98177 24.7305 4.45801 24.7305 5.01855V6.95312C24.7305 7.39974 24.7555 7.79395 24.8057 8.13574C24.8604 8.47754 24.9401 8.77376 25.0449 9.02441C25.1497 9.27051 25.2773 9.47331 25.4277 9.63281C25.5781 9.79232 25.7513 9.91081 25.9473 9.98828C26.1478 10.0612 26.3688 10.0977 26.6104 10.0977C26.9202 10.0977 27.1914 10.0384 27.4238 9.91992C27.6562 9.80143 27.8499 9.61686 28.0049 9.36621C28.1644 9.111 28.2829 8.78516 28.3604 8.38867C28.4378 7.98763 28.4766 7.50911 28.4766 6.95312ZM35.5312 0.992188V11H34.2666V2.57129L31.7168 3.50098V2.35938L35.333 0.992188H35.5312ZM45.498 5.23047V6.74805C45.498 7.5638 45.4251 8.25195 45.2793 8.8125C45.1335 9.37305 44.9238 9.82422 44.6504 10.166C44.377 10.5078 44.0465 10.7562 43.6592 10.9111C43.2764 11.0615 42.8434 11.1367 42.3604 11.1367C41.9775 11.1367 41.6243 11.0889 41.3008 10.9932C40.9772 10.8975 40.6855 10.7448 40.4258 10.5352C40.1706 10.321 39.9518 10.043 39.7695 9.70117C39.5872 9.35938 39.4482 8.94466 39.3525 8.45703C39.2568 7.9694 39.209 7.39974 39.209 6.74805V5.23047C39.209 4.41471 39.2819 3.73112 39.4277 3.17969C39.5781 2.62826 39.79 2.1862 40.0635 1.85352C40.3369 1.51628 40.665 1.27474 41.0479 1.12891C41.4352 0.983073 41.8682 0.910156 42.3467 0.910156C42.734 0.910156 43.0895 0.958008 43.4131 1.05371C43.7412 1.14486 44.0329 1.29297 44.2881 1.49805C44.5433 1.69857 44.7598 1.96745 44.9375 2.30469C45.1198 2.63737 45.2588 3.04525 45.3545 3.52832C45.4502 4.01139 45.498 4.57878 45.498 5.23047ZM44.2266 6.95312V5.01855C44.2266 4.57194 44.1992 4.18001 44.1445 3.84277C44.0944 3.50098 44.0192 3.20931 43.9189 2.96777C43.8187 2.72624 43.6911 2.53027 43.5361 2.37988C43.3857 2.22949 43.2103 2.12012 43.0098 2.05176C42.8138 1.97884 42.5928 1.94238 42.3467 1.94238C42.0459 1.94238 41.7793 1.99935 41.5469 2.11328C41.3145 2.22266 41.1185 2.39811 40.959 2.63965C40.804 2.88118 40.6855 3.19792 40.6035 3.58984C40.5215 3.98177 40.4805 4.45801 40.4805 5.01855V6.95312C40.4805 7.39974 40.5055 7.79395 40.5557 8.13574C40.6104 8.47754 40.6901 8.77376 40.7949 9.02441C40.8997 9.27051 41.0273 9.47331 41.1777 9.63281C41.3281 9.79232 41.5013 9.91081 41.6973 9.98828C41.8978 10.0612 42.1188 10.0977 42.3604 10.0977C42.6702 10.0977 42.9414 10.0384 43.1738 9.91992C43.4062 9.80143 43.5999 9.61686 43.7549 9.36621C43.9144 9.111 44.0329 8.78516 44.1104 8.38867C44.1878 7.98763 44.2266 7.50911 44.2266 6.95312ZM59.8877 5.51074V6.5498H50.7549V5.51074H59.8877ZM71.5293 9.96094V11H65.0146V10.0908L68.2754 6.46094C68.6764 6.01432 68.9863 5.63607 69.2051 5.32617C69.4284 5.01172 69.5833 4.73145 69.6699 4.48535C69.7611 4.2347 69.8066 3.97949 69.8066 3.71973C69.8066 3.3916 69.7383 3.09538 69.6016 2.83105C69.4694 2.56217 69.2734 2.34798 69.0137 2.18848C68.7539 2.02897 68.4395 1.94922 68.0703 1.94922C67.6283 1.94922 67.2591 2.03581 66.9629 2.20898C66.6712 2.3776 66.4525 2.61458 66.3066 2.91992C66.1608 3.22526 66.0879 3.57617 66.0879 3.97266H64.8232C64.8232 3.41211 64.9463 2.89941 65.1924 2.43457C65.4385 1.96973 65.8031 1.60059 66.2861 1.32715C66.7692 1.04915 67.3639 0.910156 68.0703 0.910156C68.6992 0.910156 69.237 1.02181 69.6836 1.24512C70.1302 1.46387 70.472 1.77376 70.709 2.1748C70.9505 2.57129 71.0713 3.03613 71.0713 3.56934C71.0713 3.861 71.0212 4.15723 70.9209 4.45801C70.8252 4.75423 70.6908 5.05046 70.5176 5.34668C70.349 5.6429 70.1507 5.93457 69.9229 6.22168C69.6995 6.50879 69.4603 6.79134 69.2051 7.06934L66.5391 9.96094H71.5293ZM79.1309 5.23047V6.74805C79.1309 7.5638 79.0579 8.25195 78.9121 8.8125C78.7663 9.37305 78.5566 9.82422 78.2832 10.166C78.0098 10.5078 77.6794 10.7562 77.292 10.9111C76.9092 11.0615 76.4762 11.1367 75.9932 11.1367C75.6104 11.1367 75.2572 11.0889 74.9336 10.9932C74.61 10.8975 74.3184 10.7448 74.0586 10.5352C73.8034 10.321 73.5846 10.043 73.4023 9.70117C73.2201 9.35938 73.0811 8.94466 72.9854 8.45703C72.8896 7.9694 72.8418 7.39974 72.8418 6.74805V5.23047C72.8418 4.41471 72.9147 3.73112 73.0605 3.17969C73.2109 2.62826 73.4229 2.1862 73.6963 1.85352C73.9697 1.51628 74.2979 1.27474 74.6807 1.12891C75.068 0.983073 75.501 0.910156 75.9795 0.910156C76.3669 0.910156 76.7223 0.958008 77.0459 1.05371C77.374 1.14486 77.6657 1.29297 77.9209 1.49805C78.1761 1.69857 78.3926 1.96745 78.5703 2.30469C78.7526 2.63737 78.8916 3.04525 78.9873 3.52832C79.083 4.01139 79.1309 4.57878 79.1309 5.23047ZM77.8594 6.95312V5.01855C77.8594 4.57194 77.832 4.18001 77.7773 3.84277C77.7272 3.50098 77.652 3.20931 77.5518 2.96777C77.4515 2.72624 77.3239 2.53027 77.1689 2.37988C77.0186 2.22949 76.8431 2.12012 76.6426 2.05176C76.4466 1.97884 76.2256 1.94238 75.9795 1.94238C75.6787 1.94238 75.4121 1.99935 75.1797 2.11328C74.9473 2.22266 74.7513 2.39811 74.5918 2.63965C74.4368 2.88118 74.3184 3.19792 74.2363 3.58984C74.1543 3.98177 74.1133 4.45801 74.1133 5.01855V6.95312C74.1133 7.39974 74.1383 7.79395 74.1885 8.13574C74.2432 8.47754 74.3229 8.77376 74.4277 9.02441C74.5326 9.27051 74.6602 9.47331 74.8105 9.63281C74.9609 9.79232 75.1341 9.91081 75.3301 9.98828C75.5306 10.0612 75.7516 10.0977 75.9932 10.0977C76.3031 10.0977 76.5742 10.0384 76.8066 9.91992C77.0391 9.80143 77.2327 9.61686 77.3877 9.36621C77.5472 9.111 77.6657 8.78516 77.7432 8.38867C77.8206 7.98763 77.8594 7.50911 77.8594 6.95312ZM87.2793 9.96094V11H80.7646V10.0908L84.0254 6.46094C84.4264 6.01432 84.7363 5.63607 84.9551 5.32617C85.1784 5.01172 85.3333 4.73145 85.4199 4.48535C85.5111 4.2347 85.5566 3.97949 85.5566 3.71973C85.5566 3.3916 85.4883 3.09538 85.3516 2.83105C85.2194 2.56217 85.0234 2.34798 84.7637 2.18848C84.5039 2.02897 84.1895 1.94922 83.8203 1.94922C83.3783 1.94922 83.0091 2.03581 82.7129 2.20898C82.4212 2.3776 82.2025 2.61458 82.0566 2.91992C81.9108 3.22526 81.8379 3.57617 81.8379 3.97266H80.5732C80.5732 3.41211 80.6963 2.89941 80.9424 2.43457C81.1885 1.96973 81.5531 1.60059 82.0361 1.32715C82.5192 1.04915 83.1139 0.910156 83.8203 0.910156C84.4492 0.910156 84.987 1.02181 85.4336 1.24512C85.8802 1.46387 86.222 1.77376 86.459 2.1748C86.7005 2.57129 86.8213 3.03613 86.8213 3.56934C86.8213 3.861 86.7712 4.15723 86.6709 4.45801C86.5752 4.75423 86.4408 5.05046 86.2676 5.34668C86.099 5.6429 85.9007 5.93457 85.6729 6.22168C85.4495 6.50879 85.2103 6.79134 84.9551 7.06934L82.2891 9.96094H87.2793ZM94.8809 5.23047V6.74805C94.8809 7.5638 94.8079 8.25195 94.6621 8.8125C94.5163 9.37305 94.3066 9.82422 94.0332 10.166C93.7598 10.5078 93.4294 10.7562 93.042 10.9111C92.6592 11.0615 92.2262 11.1367 91.7432 11.1367C91.3604 11.1367 91.0072 11.0889 90.6836 10.9932C90.36 10.8975 90.0684 10.7448 89.8086 10.5352C89.5534 10.321 89.3346 10.043 89.1523 9.70117C88.9701 9.35938 88.8311 8.94466 88.7354 8.45703C88.6396 7.9694 88.5918 7.39974 88.5918 6.74805V5.23047C88.5918 4.41471 88.6647 3.73112 88.8105 3.17969C88.9609 2.62826 89.1729 2.1862 89.4463 1.85352C89.7197 1.51628 90.0479 1.27474 90.4307 1.12891C90.818 0.983073 91.251 0.910156 91.7295 0.910156C92.1169 0.910156 92.4723 0.958008 92.7959 1.05371C93.124 1.14486 93.4157 1.29297 93.6709 1.49805C93.9261 1.69857 94.1426 1.96745 94.3203 2.30469C94.5026 2.63737 94.6416 3.04525 94.7373 3.52832C94.833 4.01139 94.8809 4.57878 94.8809 5.23047ZM93.6094 6.95312V5.01855C93.6094 4.57194 93.582 4.18001 93.5273 3.84277C93.4772 3.50098 93.402 3.20931 93.3018 2.96777C93.2015 2.72624 93.0739 2.53027 92.9189 2.37988C92.7686 2.22949 92.5931 2.12012 92.3926 2.05176C92.1966 1.97884 91.9756 1.94238 91.7295 1.94238C91.4287 1.94238 91.1621 1.99935 90.9297 2.11328C90.6973 2.22266 90.5013 2.39811 90.3418 2.63965C90.1868 2.88118 90.0684 3.19792 89.9863 3.58984C89.9043 3.98177 89.8633 4.45801 89.8633 5.01855V6.95312C89.8633 7.39974 89.8883 7.79395 89.9385 8.13574C89.9932 8.47754 90.0729 8.77376 90.1777 9.02441C90.2826 9.27051 90.4102 9.47331 90.5605 9.63281C90.7109 9.79232 90.8841 9.91081 91.0801 9.98828C91.2806 10.0612 91.5016 10.0977 91.7432 10.0977C92.0531 10.0977 92.3242 10.0384 92.5566 9.91992C92.7891 9.80143 92.9827 9.61686 93.1377 9.36621C93.2972 9.111 93.4157 8.78516 93.4932 8.38867C93.5706 7.98763 93.6094 7.50911 93.6094 6.95312Z" fill="white"/>
</svg>
