<svg width="30" height="35" viewBox="0 0 30 35" fill="none" xmlns="http://www.w3.org/2000/svg">
<g clip-path="url(#clip0_460_969)">
<path d="M4.69248 32.4437C4.62415 33.9727 3.64465 34.9761 2.34624 34.9761C1.66287 34.9761 1.07061 34.6894 0.592255 34.14C0.205011 33.686 0 33.0888 0 32.4198C0 31.7509 0.250569 31.1297 0.728929 30.628C1.18451 30.1502 1.73121 29.9352 2.41458 29.9352C3.34852 29.9352 4.07745 30.413 4.44191 31.2492H3.62187C3.32574 30.843 2.89294 30.628 2.36902 30.628C1.93622 30.628 1.5262 30.7952 1.23007 31.1297C0.911162 31.4881 0.728929 31.9659 0.728929 32.4198C0.728929 32.9215 0.888383 33.3993 1.20729 33.7099C1.5262 34.0683 1.959 34.2594 2.3918 34.2594C3.09795 34.2594 3.62187 33.8772 3.98633 33.0888H1.8451V32.3959H4.69248V32.4437Z" fill="white"/>
<path d="M5.4213 34.9045H4.71515L6.51469 30.0547H7.17529L8.97483 34.9045H8.2459L7.74476 33.495H5.94522L5.4213 34.9045ZM6.8336 30.9625L6.17301 32.8021H7.49419L6.8336 30.9625Z" fill="white"/>
<path d="M9.22546 34.9045V30.0547H10.2277L11.5717 33.8055L12.9157 30.0547H13.8952V34.9045H13.2574L13.3029 30.6997L11.7995 34.9045H11.3211L9.81772 30.6997L9.86328 34.9045H9.22546Z" fill="white"/>
<path d="M16.811 35C16.1276 35 15.5581 34.7372 15.1025 34.2355C14.6697 33.7577 14.442 33.1604 14.442 32.4437C14.442 31.7747 14.6925 31.1536 15.1481 30.6996C15.6037 30.2218 16.1732 29.9829 16.8338 29.9829C17.9044 29.9829 18.8383 30.7235 19.1344 31.9181H17.9044C17.6538 31.4402 17.2893 31.1774 16.8338 31.1774C16.1504 31.1774 15.6037 31.7269 15.6037 32.4437C15.6037 33.2082 16.1732 33.8054 16.811 33.8054C17.2438 33.8054 17.631 33.5665 17.8816 33.1126H19.1117C18.7928 34.2833 17.9272 35 16.811 35Z" fill="white"/>
<path d="M20.2506 34.9045H19.0205L20.7973 30.0547H21.7084L23.4852 34.9045H22.2324L22.0046 34.2117H20.4784L20.2506 34.9045ZM21.2529 31.6315L20.7973 33.1844H21.7084L21.2529 31.6315Z" fill="white"/>
<path d="M23.5763 34.9045V30.0547H25.1025C25.5808 30.0547 25.9681 30.0786 26.2642 30.3175C26.6742 30.6281 26.8793 31.082 26.8793 31.6793C26.8793 32.4677 26.492 33.041 25.8314 33.2322L26.9704 34.9045H25.5809L24.6925 33.3516V34.9045H23.5763ZM24.9203 32.2765C25.4897 32.2765 25.7403 32.1332 25.7403 31.6793C25.7403 31.2731 25.4897 31.1059 25.0114 31.1059H24.6925V32.2526H24.9203V32.2765Z" fill="white"/>
<path d="M27.4941 34.9045V30.0547H29.9998V31.1298H28.6331V31.9182H29.9998V32.9933H28.6331V33.8294H29.9998V34.9045H27.4941Z" fill="white"/>
<path d="M29.1801 16.7475C29.0662 16.6758 28.9295 16.628 28.7701 16.6041C28.7245 16.6041 28.7017 16.6041 28.6562 16.6041C28.6334 16.6041 28.6106 16.6041 28.6106 16.6041H28.5651C28.5195 16.6041 28.4739 16.6041 28.4284 16.6041H19.3851C18.7473 16.6041 18.2234 17.1536 18.2234 17.8226C18.2234 18.4915 18.7473 19.041 19.3851 19.041H22.8931C23.007 19.041 23.0981 19.1365 23.0981 19.256C23.0981 19.3277 23.0525 19.3755 23.007 19.4232C21.0935 20.4983 18.6106 21.1434 15.8999 21.1434C15.2393 21.1434 14.6015 21.0956 13.9637 21.0239V23.7714C14.5104 23.8191 15.0571 23.843 15.6266 23.843C19.3851 23.843 22.8247 22.8874 25.3988 21.3106C25.4215 21.2867 25.4671 21.2867 25.5127 21.2867C25.6493 21.2867 25.7404 21.3823 25.7404 21.5256C25.7404 21.5495 25.7404 21.5734 25.7404 21.5973L25.2165 23.1263C24.9432 23.9386 25.3304 24.8226 26.0821 25.1092C26.2416 25.1809 26.4238 25.2048 26.5833 25.2048C27.1755 25.2048 27.745 24.8226 27.9728 24.2014L29.909 18.6826C30.1824 17.9181 29.8407 17.1058 29.1801 16.7475Z" fill="white"/>
<path d="M15.9226 6.35511C18.6561 6.35511 21.139 7.02405 23.0752 8.09914C23.0752 8.09914 24.3053 9.03088 24.8748 8.14692C25.5354 7.11962 24.2142 6.49846 24.2142 6.49846C21.8224 5.32781 18.8611 4.61108 15.6493 4.61108C15.0798 4.61108 14.5331 4.63498 13.9864 4.68276V6.45067C14.6242 6.379 15.262 6.35511 15.9226 6.35511Z" fill="white"/>
<path d="M2.05011 0C0.933941 0 0 0.955631 0 2.15017V25.4915C0 26.6621 0.911162 27.6416 2.05011 27.6416H13.9863V23.7713C6.81093 23.2218 1.23007 19.1604 1.23007 14.215C1.23007 9.26962 6.81093 5.20819 13.9863 4.6587V0H2.05011Z" fill="white"/>
<path d="M4.85208 13.7371C4.85208 17.3924 8.79286 20.4027 13.9865 21.0238V6.45044C8.79286 7.0716 4.85208 10.1057 4.85208 13.7371Z" fill="white"/>
</g>
<defs>
<clipPath id="clip0_460_969">
<rect width="30" height="35" fill="white"/>
</clipPath>
</defs>
</svg>
