<svg width="42" height="30" viewBox="0 0 42 30" fill="none" xmlns="http://www.w3.org/2000/svg">
<path d="M16.7275 5.68164V9.76953C16.5589 9.95638 16.2992 10.1569 15.9482 10.3711C15.6019 10.5807 15.1644 10.7607 14.6357 10.9111C14.1071 11.0615 13.485 11.1367 12.7695 11.1367C12.1087 11.1367 11.5094 11.0319 10.9717 10.8223C10.4339 10.6081 9.97135 10.2959 9.58398 9.88574C9.20117 9.47103 8.90495 8.96517 8.69531 8.36816C8.49023 7.7666 8.3877 7.07845 8.3877 6.30371V5.75C8.3877 4.97526 8.49251 4.28711 8.70215 3.68555C8.91178 3.08398 9.20573 2.57812 9.58398 2.16797C9.9668 1.75326 10.4157 1.4388 10.9307 1.22461C11.4502 1.01042 12.0199 0.90332 12.6396 0.90332C13.5557 0.90332 14.3008 1.04915 14.875 1.34082C15.4492 1.62793 15.8844 2.02669 16.1807 2.53711C16.4769 3.04297 16.6569 3.62858 16.7207 4.29395H14.417C14.3714 3.96582 14.2848 3.68783 14.1572 3.45996C14.0342 3.22754 13.8564 3.05208 13.624 2.93359C13.3916 2.81055 13.0908 2.74902 12.7217 2.74902C12.4346 2.74902 12.1725 2.81055 11.9355 2.93359C11.7031 3.05664 11.5049 3.24349 11.3408 3.49414C11.1768 3.74023 11.0492 4.05013 10.958 4.42383C10.8714 4.79753 10.8281 5.23503 10.8281 5.73633V6.30371C10.8281 6.80046 10.8691 7.23568 10.9512 7.60938C11.0378 7.98307 11.1654 8.29525 11.334 8.5459C11.5072 8.79199 11.7259 8.97884 11.9902 9.10645C12.2591 9.22949 12.5758 9.29102 12.9404 9.29102C13.1956 9.29102 13.4144 9.27051 13.5967 9.22949C13.779 9.18392 13.9294 9.12923 14.0479 9.06543C14.1709 8.99707 14.2643 8.93327 14.3281 8.87402V7.3291H12.6602V5.68164H16.7275ZM24.9785 9.1543V11H19.6738V9.1543H24.9785ZM20.5283 1.04688V11H18.1289V1.04688H20.5283ZM24.2949 4.99805V6.78223H19.6738V4.99805H24.2949ZM24.999 1.04688V2.89941H19.6738V1.04688H24.999ZM30.9189 1.04688V11H28.5195V1.04688H30.9189ZM33.9131 1.04688V2.89941H25.5938V1.04688H33.9131ZM9.20801 23.8252V24.2285C9.20801 24.9896 9.10091 25.6732 8.88672 26.2793C8.67708 26.8809 8.37858 27.3958 7.99121 27.8242C7.60384 28.248 7.14583 28.5739 6.61719 28.8018C6.08854 29.0251 5.50521 29.1367 4.86719 29.1367C4.22461 29.1367 3.63672 29.0251 3.10352 28.8018C2.57487 28.5739 2.11458 28.248 1.72266 27.8242C1.33529 27.3958 1.03451 26.8809 0.820312 26.2793C0.610677 25.6732 0.505859 24.9896 0.505859 24.2285V23.8252C0.505859 23.0641 0.610677 22.3805 0.820312 21.7744C1.03451 21.1683 1.33301 20.6533 1.71582 20.2295C2.10319 19.8011 2.5612 19.4753 3.08984 19.252C3.62305 19.0241 4.21094 18.9102 4.85352 18.9102C5.49154 18.9102 6.07487 19.0241 6.60352 19.252C7.13672 19.4753 7.59701 19.8011 7.98438 20.2295C8.37174 20.6533 8.67253 21.1683 8.88672 21.7744C9.10091 22.3805 9.20801 23.0641 9.20801 23.8252ZM6.77441 24.2285V23.8115C6.77441 23.3193 6.73112 22.8864 6.64453 22.5127C6.5625 22.1344 6.43945 21.8177 6.27539 21.5625C6.11133 21.3073 5.90853 21.1159 5.66699 20.9883C5.43001 20.8561 5.15885 20.79 4.85352 20.79C4.53451 20.79 4.25651 20.8561 4.01953 20.9883C3.78255 21.1159 3.58431 21.3073 3.4248 21.5625C3.2653 21.8177 3.14453 22.1344 3.0625 22.5127C2.98503 22.8864 2.94629 23.3193 2.94629 23.8115V24.2285C2.94629 24.7161 2.98503 25.1491 3.0625 25.5273C3.14453 25.901 3.2653 26.2178 3.4248 26.4775C3.58887 26.7373 3.78939 26.9333 4.02637 27.0654C4.2679 27.1976 4.54818 27.2637 4.86719 27.2637C5.17253 27.2637 5.44368 27.1976 5.68066 27.0654C5.91764 26.9333 6.11589 26.7373 6.27539 26.4775C6.43945 26.2178 6.5625 25.901 6.64453 25.5273C6.73112 25.1491 6.77441 24.7161 6.77441 24.2285ZM12.8516 19.0469V29H10.4521V19.0469H12.8516ZM16.7207 23.1895V25.0352H12.168V23.1895H16.7207ZM17.1104 19.0469V20.8994H12.168V19.0469H17.1104ZM20.5078 19.0469V29H18.1084V19.0469H20.5078ZM24.377 23.1895V25.0352H19.8242V23.1895H24.377ZM24.7666 19.0469V20.8994H19.8242V19.0469H24.7666ZM32.6143 27.1543V29H27.3096V27.1543H32.6143ZM28.1641 19.0469V29H25.7646V19.0469H28.1641ZM31.9307 22.998V24.7822H27.3096V22.998H31.9307ZM32.6348 19.0469V20.8994H27.3096V19.0469H32.6348ZM33.5986 19.0469H37.5156C38.2812 19.0469 38.9466 19.1608 39.5117 19.3887C40.0768 19.6165 40.512 19.9538 40.8174 20.4004C41.1273 20.847 41.2822 21.3984 41.2822 22.0547C41.2822 22.6243 41.1934 23.1006 41.0156 23.4834C40.8379 23.8662 40.5895 24.1829 40.2705 24.4336C39.9561 24.6797 39.5892 24.8825 39.1699 25.042L38.3838 25.4863H35.0957L35.082 23.6338H37.5156C37.821 23.6338 38.0739 23.5791 38.2744 23.4697C38.4749 23.3604 38.6253 23.2054 38.7256 23.0049C38.8304 22.7998 38.8828 22.556 38.8828 22.2734C38.8828 21.9863 38.8304 21.7402 38.7256 21.5352C38.6208 21.3301 38.4658 21.1729 38.2607 21.0635C38.0602 20.9541 37.8118 20.8994 37.5156 20.8994H35.998V29H33.5986V19.0469ZM39.0469 29L36.8457 24.5977L39.3887 24.584L41.6172 28.8975V29H39.0469Z" fill="black"/>
</svg>
