<svg width="101" height="14" viewBox="0 0 101 14" fill="none" xmlns="http://www.w3.org/2000/svg">
<path d="M4.23438 7.09668H1.5752V6.02344H4.23438C4.74935 6.02344 5.16634 5.94141 5.48535 5.77734C5.80436 5.61328 6.03678 5.38542 6.18262 5.09375C6.33301 4.80208 6.4082 4.4694 6.4082 4.0957C6.4082 3.75391 6.33301 3.43262 6.18262 3.13184C6.03678 2.83105 5.80436 2.58952 5.48535 2.40723C5.16634 2.22038 4.74935 2.12695 4.23438 2.12695H1.88281V11H0.563477V1.04688H4.23438C4.98633 1.04688 5.62207 1.17676 6.1416 1.43652C6.66113 1.69629 7.05534 2.05632 7.32422 2.5166C7.5931 2.97233 7.72754 3.49414 7.72754 4.08203C7.72754 4.72005 7.5931 5.26465 7.32422 5.71582C7.05534 6.16699 6.66113 6.51107 6.1416 6.74805C5.62207 6.98047 4.98633 7.09668 4.23438 7.09668ZM10.4688 4.76562V11H9.2041V3.60352H10.4346L10.4688 4.76562ZM12.7793 3.5625L12.7725 4.73828C12.6676 4.71549 12.5674 4.70182 12.4717 4.69727C12.3805 4.68815 12.2757 4.68359 12.1572 4.68359C11.8656 4.68359 11.6081 4.72917 11.3848 4.82031C11.1615 4.91146 10.9723 5.03906 10.8174 5.20312C10.6624 5.36719 10.5394 5.56315 10.4482 5.79102C10.3617 6.01432 10.3047 6.26042 10.2773 6.5293L9.92188 6.73438C9.92188 6.28776 9.96517 5.86849 10.0518 5.47656C10.1429 5.08464 10.2819 4.73828 10.4688 4.4375C10.6556 4.13216 10.8926 3.89518 11.1797 3.72656C11.4714 3.55339 11.8177 3.4668 12.2188 3.4668C12.3099 3.4668 12.4147 3.47819 12.5332 3.50098C12.6517 3.51921 12.7337 3.53971 12.7793 3.5625ZM15.3223 3.60352V11H14.0508V3.60352H15.3223ZM13.9551 1.6416C13.9551 1.43652 14.0166 1.26335 14.1396 1.12207C14.2673 0.980794 14.4541 0.910156 14.7002 0.910156C14.9417 0.910156 15.1263 0.980794 15.2539 1.12207C15.3861 1.26335 15.4521 1.43652 15.4521 1.6416C15.4521 1.83757 15.3861 2.00618 15.2539 2.14746C15.1263 2.28418 14.9417 2.35254 14.7002 2.35254C14.4541 2.35254 14.2673 2.28418 14.1396 2.14746C14.0166 2.00618 13.9551 1.83757 13.9551 1.6416ZM19.6016 9.8584L21.625 3.60352H22.917L20.2578 11H19.4102L19.6016 9.8584ZM17.9131 3.60352L19.998 9.89258L20.1416 11H19.2939L16.6143 3.60352H17.9131ZM28.3857 9.73535V5.92773C28.3857 5.63607 28.3265 5.38314 28.208 5.16895C28.0941 4.9502 27.9209 4.78158 27.6885 4.66309C27.4561 4.5446 27.1689 4.48535 26.8271 4.48535C26.5081 4.48535 26.2279 4.54004 25.9863 4.64941C25.7493 4.75879 25.5625 4.90234 25.4258 5.08008C25.2936 5.25781 25.2275 5.44922 25.2275 5.6543H23.9629C23.9629 5.38997 24.0312 5.12793 24.168 4.86816C24.3047 4.6084 24.5007 4.3737 24.7559 4.16406C25.0156 3.94987 25.3255 3.78125 25.6855 3.6582C26.0501 3.5306 26.4557 3.4668 26.9023 3.4668C27.4401 3.4668 27.9141 3.55794 28.3242 3.74023C28.7389 3.92253 29.0625 4.19824 29.2949 4.56738C29.5319 4.93197 29.6504 5.38997 29.6504 5.94141V9.38672C29.6504 9.63281 29.6709 9.89486 29.7119 10.1729C29.7575 10.4508 29.8236 10.6901 29.9102 10.8906V11H28.5908C28.527 10.8542 28.4769 10.6605 28.4404 10.4189C28.404 10.1729 28.3857 9.94499 28.3857 9.73535ZM28.6045 6.51562L28.6182 7.4043H27.3398C26.9798 7.4043 26.6585 7.43392 26.376 7.49316C26.0934 7.54785 25.8564 7.63216 25.665 7.74609C25.4736 7.86003 25.3278 8.00358 25.2275 8.17676C25.1273 8.34538 25.0771 8.54362 25.0771 8.77148C25.0771 9.00391 25.1296 9.21582 25.2344 9.40723C25.3392 9.59863 25.4964 9.7513 25.7061 9.86523C25.9202 9.97461 26.1823 10.0293 26.4922 10.0293C26.8796 10.0293 27.2214 9.94727 27.5176 9.7832C27.8138 9.61914 28.0485 9.41862 28.2217 9.18164C28.3994 8.94466 28.4951 8.71452 28.5088 8.49121L29.0488 9.09961C29.0169 9.29102 28.9303 9.50293 28.7891 9.73535C28.6478 9.96777 28.4587 10.1911 28.2217 10.4053C27.9893 10.6149 27.7113 10.7904 27.3877 10.9316C27.0687 11.0684 26.7087 11.1367 26.3076 11.1367C25.8063 11.1367 25.3665 11.0387 24.9883 10.8428C24.6146 10.6468 24.3229 10.3848 24.1133 10.0566C23.9082 9.72396 23.8057 9.35254 23.8057 8.94238C23.8057 8.5459 23.8831 8.19727 24.0381 7.89648C24.193 7.59115 24.4163 7.33822 24.708 7.1377C24.9997 6.93262 25.3506 6.77767 25.7607 6.67285C26.1709 6.56803 26.6289 6.51562 27.1348 6.51562H28.6045ZM34.5996 10.0977C34.9004 10.0977 35.1784 10.0361 35.4336 9.91309C35.6888 9.79004 35.8984 9.62142 36.0625 9.40723C36.2266 9.18848 36.32 8.9401 36.3428 8.66211H37.5459C37.5231 9.09961 37.375 9.50749 37.1016 9.88574C36.8327 10.2594 36.4795 10.5625 36.042 10.7949C35.6045 11.0228 35.1237 11.1367 34.5996 11.1367C34.0436 11.1367 33.5583 11.0387 33.1436 10.8428C32.7334 10.6468 32.3916 10.3779 32.1182 10.0361C31.8493 9.69434 31.6465 9.30241 31.5098 8.86035C31.3776 8.41374 31.3115 7.94206 31.3115 7.44531V7.1582C31.3115 6.66146 31.3776 6.19206 31.5098 5.75C31.6465 5.30339 31.8493 4.90918 32.1182 4.56738C32.3916 4.22559 32.7334 3.95671 33.1436 3.76074C33.5583 3.56478 34.0436 3.4668 34.5996 3.4668C35.1784 3.4668 35.6842 3.58529 36.1172 3.82227C36.5501 4.05469 36.8896 4.3737 37.1357 4.7793C37.3864 5.18034 37.5231 5.63607 37.5459 6.14648H36.3428C36.32 5.84115 36.2334 5.56543 36.083 5.31934C35.9372 5.07324 35.7367 4.87728 35.4814 4.73145C35.2308 4.58105 34.9368 4.50586 34.5996 4.50586C34.2122 4.50586 33.8864 4.58333 33.6221 4.73828C33.3623 4.88867 33.1549 5.09375 33 5.35352C32.8496 5.60872 32.7402 5.89355 32.6719 6.20801C32.6081 6.5179 32.5762 6.83464 32.5762 7.1582V7.44531C32.5762 7.76888 32.6081 8.08789 32.6719 8.40234C32.7357 8.7168 32.8428 9.00163 32.9932 9.25684C33.1481 9.51204 33.3555 9.71712 33.6152 9.87207C33.8796 10.0225 34.2077 10.0977 34.5996 10.0977ZM41.0459 10.2344L43.1035 3.60352H44.457L41.4902 12.1416C41.4219 12.3239 41.3307 12.5199 41.2168 12.7295C41.1074 12.9437 40.9661 13.1465 40.793 13.3379C40.6198 13.5293 40.4102 13.6842 40.1641 13.8027C39.9225 13.9258 39.6331 13.9873 39.2959 13.9873C39.1956 13.9873 39.068 13.9736 38.9131 13.9463C38.7581 13.9189 38.6488 13.8962 38.585 13.8779L38.5781 12.8525C38.6146 12.8571 38.6715 12.8617 38.749 12.8662C38.8311 12.8753 38.888 12.8799 38.9199 12.8799C39.207 12.8799 39.4508 12.8411 39.6514 12.7637C39.8519 12.6908 40.0205 12.5654 40.1572 12.3877C40.2985 12.2145 40.4193 11.9753 40.5195 11.6699L41.0459 10.2344ZM39.5352 3.60352L41.4561 9.3457L41.7842 10.6787L40.875 11.1436L38.1543 3.60352H39.5352ZM58.2246 5.51074V6.5498H49.0918V5.51074H58.2246ZM67.0771 1.04688V11H65.7783V1.04688H67.0771ZM70.2764 1.04688V2.12695H62.5859V1.04688H70.2764ZM73.9473 11.1367C73.4323 11.1367 72.9652 11.0501 72.5459 10.877C72.1312 10.6992 71.7734 10.4508 71.4727 10.1318C71.1764 9.81283 70.9486 9.43457 70.7891 8.99707C70.6296 8.55957 70.5498 8.08105 70.5498 7.56152V7.27441C70.5498 6.67285 70.6387 6.13737 70.8164 5.66797C70.9941 5.19401 71.2357 4.79297 71.541 4.46484C71.8464 4.13672 72.1927 3.88835 72.5801 3.71973C72.9674 3.55111 73.3685 3.4668 73.7832 3.4668C74.3118 3.4668 74.7676 3.55794 75.1504 3.74023C75.5378 3.92253 75.8545 4.17773 76.1006 4.50586C76.3467 4.82943 76.529 5.21224 76.6475 5.6543C76.766 6.0918 76.8252 6.57031 76.8252 7.08984V7.65723H71.3018V6.625H75.5605V6.5293C75.5423 6.20117 75.474 5.88216 75.3555 5.57227C75.2415 5.26237 75.0592 5.00716 74.8086 4.80664C74.5579 4.60612 74.2161 4.50586 73.7832 4.50586C73.4961 4.50586 73.2318 4.56738 72.9902 4.69043C72.7487 4.80892 72.5413 4.98665 72.3682 5.22363C72.195 5.46061 72.0605 5.75 71.9648 6.0918C71.8691 6.43359 71.8213 6.8278 71.8213 7.27441V7.56152C71.8213 7.91243 71.8691 8.24284 71.9648 8.55273C72.0651 8.85807 72.2087 9.12695 72.3955 9.35938C72.5869 9.5918 72.8171 9.77409 73.0859 9.90625C73.3594 10.0384 73.6693 10.1045 74.0156 10.1045C74.4622 10.1045 74.8405 10.0133 75.1504 9.83105C75.4603 9.64876 75.7314 9.40495 75.9639 9.09961L76.7295 9.70801C76.57 9.94954 76.3672 10.1797 76.1211 10.3984C75.875 10.6172 75.5719 10.7949 75.2119 10.9316C74.8564 11.0684 74.4349 11.1367 73.9473 11.1367ZM79.5664 4.76562V11H78.3018V3.60352H79.5322L79.5664 4.76562ZM81.877 3.5625L81.8701 4.73828C81.7653 4.71549 81.665 4.70182 81.5693 4.69727C81.4782 4.68815 81.3734 4.68359 81.2549 4.68359C80.9632 4.68359 80.7057 4.72917 80.4824 4.82031C80.2591 4.91146 80.07 5.03906 79.915 5.20312C79.7601 5.36719 79.637 5.56315 79.5459 5.79102C79.4593 6.01432 79.4023 6.26042 79.375 6.5293L79.0195 6.73438C79.0195 6.28776 79.0628 5.86849 79.1494 5.47656C79.2406 5.08464 79.3796 4.73828 79.5664 4.4375C79.7533 4.13216 79.9902 3.89518 80.2773 3.72656C80.569 3.55339 80.9154 3.4668 81.3164 3.4668C81.4076 3.4668 81.5124 3.47819 81.6309 3.50098C81.7493 3.51921 81.8314 3.53971 81.877 3.5625ZM84.3037 5.07324V11H83.0322V3.60352H84.2354L84.3037 5.07324ZM84.0439 7.02148L83.4561 7.00098C83.4606 6.49512 83.5267 6.02799 83.6543 5.59961C83.7819 5.16667 83.971 4.79069 84.2217 4.47168C84.4723 4.15267 84.7845 3.90658 85.1582 3.7334C85.5319 3.55566 85.9648 3.4668 86.457 3.4668C86.8034 3.4668 87.1224 3.51693 87.4141 3.61719C87.7057 3.71289 87.9587 3.86556 88.1729 4.0752C88.387 4.28483 88.5534 4.55371 88.6719 4.88184C88.7904 5.20996 88.8496 5.60645 88.8496 6.07129V11H87.585V6.13281C87.585 5.74544 87.5189 5.43555 87.3867 5.20312C87.2591 4.9707 87.0768 4.80208 86.8398 4.69727C86.6029 4.58789 86.3249 4.5332 86.0059 4.5332C85.6322 4.5332 85.32 4.59928 85.0693 4.73145C84.8187 4.86361 84.6182 5.0459 84.4678 5.27832C84.3174 5.51074 84.208 5.77734 84.1396 6.07812C84.0758 6.37435 84.0439 6.6888 84.0439 7.02148ZM88.8359 6.32422L87.9883 6.58398C87.9928 6.17839 88.0589 5.78874 88.1865 5.41504C88.3187 5.04134 88.5078 4.70866 88.7539 4.41699C89.0046 4.12533 89.3122 3.89518 89.6768 3.72656C90.0413 3.55339 90.4583 3.4668 90.9277 3.4668C91.3242 3.4668 91.6751 3.51921 91.9805 3.62402C92.2904 3.72884 92.5501 3.89062 92.7598 4.10938C92.974 4.32357 93.1357 4.59928 93.2451 4.93652C93.3545 5.27376 93.4092 5.6748 93.4092 6.13965V11H92.1377V6.12598C92.1377 5.71126 92.0716 5.38997 91.9395 5.16211C91.8118 4.92969 91.6296 4.7679 91.3926 4.67676C91.1602 4.58105 90.8822 4.5332 90.5586 4.5332C90.2806 4.5332 90.0345 4.58105 89.8203 4.67676C89.6061 4.77246 89.4261 4.90462 89.2803 5.07324C89.1344 5.2373 89.0228 5.42643 88.9453 5.64062C88.8724 5.85482 88.8359 6.08268 88.8359 6.32422ZM99.6299 9.03809C99.6299 8.85579 99.5889 8.68717 99.5068 8.53223C99.4294 8.37272 99.2676 8.22917 99.0215 8.10156C98.7799 7.9694 98.4154 7.85547 97.9277 7.75977C97.5176 7.67318 97.1462 7.57064 96.8135 7.45215C96.4854 7.33366 96.2051 7.1901 95.9727 7.02148C95.7448 6.85286 95.5693 6.65462 95.4463 6.42676C95.3232 6.19889 95.2617 5.93229 95.2617 5.62695C95.2617 5.33529 95.3255 5.05957 95.4531 4.7998C95.5853 4.54004 95.7699 4.3099 96.0068 4.10938C96.2484 3.90885 96.5378 3.75163 96.875 3.6377C97.2122 3.52376 97.5882 3.4668 98.0029 3.4668C98.5954 3.4668 99.1012 3.57161 99.5205 3.78125C99.9398 3.99089 100.261 4.27116 100.484 4.62207C100.708 4.96842 100.819 5.35352 100.819 5.77734H99.5547C99.5547 5.57227 99.4932 5.37402 99.3701 5.18262C99.2516 4.98665 99.0762 4.82487 98.8438 4.69727C98.6159 4.56966 98.3356 4.50586 98.0029 4.50586C97.652 4.50586 97.3672 4.56055 97.1484 4.66992C96.9342 4.77474 96.777 4.90918 96.6768 5.07324C96.5811 5.2373 96.5332 5.41048 96.5332 5.59277C96.5332 5.72949 96.556 5.85254 96.6016 5.96191C96.6517 6.06673 96.7383 6.16471 96.8613 6.25586C96.9844 6.34245 97.1576 6.42448 97.3809 6.50195C97.6042 6.57943 97.889 6.6569 98.2354 6.73438C98.8415 6.87109 99.3405 7.03516 99.7324 7.22656C100.124 7.41797 100.416 7.65267 100.607 7.93066C100.799 8.20866 100.895 8.5459 100.895 8.94238C100.895 9.26595 100.826 9.56217 100.689 9.83105C100.557 10.0999 100.364 10.3324 100.108 10.5283C99.8577 10.7197 99.557 10.8701 99.2061 10.9795C98.8597 11.0843 98.4701 11.1367 98.0371 11.1367C97.3854 11.1367 96.834 11.0205 96.3828 10.7881C95.9316 10.5557 95.5898 10.2549 95.3574 9.88574C95.125 9.5166 95.0088 9.12695 95.0088 8.7168H96.2803C96.2985 9.06315 96.3988 9.33887 96.5811 9.54395C96.7633 9.74447 96.9867 9.88802 97.251 9.97461C97.5153 10.0566 97.7773 10.0977 98.0371 10.0977C98.3835 10.0977 98.6729 10.0521 98.9053 9.96094C99.1423 9.86979 99.3223 9.74447 99.4453 9.58496C99.5684 9.42546 99.6299 9.24316 99.6299 9.03809Z" fill="white"/>
</svg>
