<svg width="193" height="26" viewBox="0 0 193 26" fill="none" xmlns="http://www.w3.org/2000/svg">
<g clip-path="url(#clip0_530_1154)">
<path d="M188.955 26H4.05016C0 26 0 22.1955 0 12.9972V12.3377C0 8.02038 0 5.17971 0.426049 3.26339C0.916813 1.03707 2.07092 0 4.05016 0H188.955C193 0 193 3.53956 193 12.9972C193 21.6545 193 26 188.955 26ZM4.05016 1.12725C2.57786 1.12725 1.8552 1.79796 1.47229 3.51702C1.08939 5.23607 1.0786 8.09928 1.0786 12.3265V12.9972C1.0786 22.4097 1.19725 24.8727 4.05016 24.8727H188.955C191.652 24.8727 191.921 22.4661 191.921 12.9972C191.921 3.41556 191.814 1.12725 188.955 1.12725H4.05016Z" fill="white"/>
<path d="M188.955 25.1546H4.04462C0.808804 25.1546 0.808804 21.863 0.808804 12.9972C0.808804 4.13139 0.722516 0.845459 4.04462 0.845459H188.955C192.191 0.845459 192.191 3.82703 192.191 12.9972C192.191 22.1674 191.991 25.1546 188.955 25.1546Z" fill="url(#paint0_linear_530_1154)"/>
<path d="M188.955 25.4364H4.04992C0.539062 25.4364 0.539062 22.049 0.539062 12.9972V12.3377C0.539062 8.06544 0.539062 5.24732 0.948932 3.38172C1.38577 1.40904 2.31337 0.563599 4.04992 0.563599H188.955C192.46 0.563599 192.46 3.69735 192.46 12.9972C192.46 22.297 192.293 25.4364 188.955 25.4364ZM4.04992 1.12722C2.57762 1.12722 1.85496 1.79794 1.47205 3.51699C1.08915 5.23605 1.07836 8.10489 1.07836 12.3377V12.9972C1.07836 17.5062 1.07836 20.4426 1.47745 22.3421C1.87653 24.2415 2.55605 24.8727 4.04992 24.8727H188.955C191.652 24.8727 191.921 22.466 191.921 12.9972C191.921 3.87771 191.921 1.12722 188.955 1.12722H4.04992Z" fill="url(#paint1_linear_530_1154)"/>
<path d="M188.955 25.1546H103.034V0.845459H188.955C192.191 0.845459 192.191 3.82703 192.191 12.9972C192.191 22.1674 191.992 25.1546 188.955 25.1546Z" fill="url(#paint2_linear_530_1154)"/>
<path d="M4.04458 1.97271H103.033V24.0273H4.04458C3.23562 24.0273 2.69632 23.9033 2.32959 22.2576C1.91973 20.4314 1.88737 17.2695 1.88737 12.9972C1.88737 3.20704 2.15702 1.97271 4.04458 1.97271ZM4.04458 0.845459C0.808763 0.845459 0.646973 3.09996 0.646973 12.9972C0.646973 22.1674 0.992126 25.1546 4.04458 25.1546H103.033V0.845459H4.04458Z" fill="url(#paint3_linear_530_1154)"/>
<path d="M12.6681 5.8335H7.95463C7.58564 5.84343 7.23324 5.99578 6.96536 6.26116C6.69748 6.52655 6.5331 6.88619 6.50391 7.27074V20.5159C6.50391 20.5533 6.51811 20.5891 6.5434 20.6156C6.56868 20.642 6.60297 20.6568 6.63873 20.6568H8.62876C8.99985 20.6559 9.3565 20.5064 9.62534 20.2391C9.89418 19.9717 10.0548 19.6069 10.0741 19.2196V16.2436H12.4686C16.0388 16.2436 17.6998 14.8966 17.6998 11.9995V10.1001C17.7214 7.15238 16.179 5.8335 12.6681 5.8335ZM14.1296 10.4045V11.6726C14.1296 12.6364 13.8762 13.1268 12.5117 13.1268H10.0957V9.01797H12.4902C13.8762 9.01797 14.1296 9.48578 14.1296 10.4045Z" fill="url(#paint4_linear_530_1154)"/>
<path d="M12.6682 5.83353C16.1629 5.83353 17.7214 7.15241 17.7214 10.1002V11.9996C17.7214 14.8966 16.0604 16.2437 12.4902 16.2437H10.0957V19.2196C10.0762 19.6108 9.91262 19.979 9.63916 20.2469C9.3657 20.5148 9.00363 20.6618 8.62882 20.6569H6.63879C6.60303 20.6569 6.56874 20.642 6.54346 20.6156C6.51817 20.5892 6.50397 20.5533 6.50397 20.516V7.27078C6.53316 6.88623 6.69754 6.52659 6.96542 6.2612C7.2333 5.99581 7.5857 5.84347 7.95469 5.83353H12.6682ZM10.0957 13.1268H12.4902C13.8762 13.1268 14.1081 12.6365 14.1081 11.6727V10.4045C14.1081 9.48582 13.8547 9.01801 12.4902 9.01801H10.0957V13.1268ZM12.6682 5.69263H7.95469C7.54925 5.70016 7.16131 5.86654 6.86767 6.15881C6.57403 6.45108 6.39611 6.84792 6.36914 7.27078V20.516C6.36914 20.5907 6.39755 20.6624 6.44812 20.7152C6.49869 20.7681 6.56728 20.7978 6.63879 20.7978H8.62882C9.04213 20.8071 9.44258 20.6473 9.7448 20.3525C10.047 20.0577 10.2271 19.6512 10.2467 19.2196V16.4015H12.5064C16.1683 16.4015 17.8994 15.0093 17.8994 12.0165V10.1002C17.8994 7.05096 16.2815 5.69263 12.7113 5.69263H12.6682ZM10.2467 9.15892H12.5064C13.7953 9.15892 14.011 9.54218 14.011 10.4045V11.6727C14.011 12.5801 13.7953 12.9859 12.5064 12.9859H10.2467V9.15892Z" fill="#273D83"/>
<path d="M30.9291 5.8335H28.9121C28.5345 5.84329 28.1747 6.00329 27.9061 6.28084C27.6375 6.5584 27.4804 6.9326 27.4668 7.3271V15.9731C27.4668 17.1736 26.8358 17.664 25.3635 17.664C23.8912 17.664 23.2602 17.1511 23.2602 15.9731V7.27074C23.2409 6.88246 23.0795 6.5168 22.8095 6.24932C22.5395 5.98183 22.1815 5.83297 21.8095 5.8335H19.7979C19.7622 5.8335 19.7279 5.84834 19.7026 5.87477C19.6773 5.90119 19.6631 5.93703 19.6631 5.9744V16.2775C19.6631 19.1632 21.7933 20.8541 25.3473 20.8541C28.9013 20.8541 31.0639 19.1632 31.0639 16.2775V5.9744C31.0639 5.93703 31.0497 5.90119 31.0244 5.87477C30.9992 5.84834 30.9649 5.8335 30.9291 5.8335Z" fill="url(#paint5_linear_530_1154)"/>
<path d="M30.9292 5.83353C30.9649 5.83353 30.9992 5.84838 31.0245 5.8748C31.0498 5.90123 31.064 5.93707 31.064 5.97444V16.2775C31.064 19.1633 28.9337 20.8541 25.3474 20.8541C21.761 20.8541 19.647 19.1633 19.647 16.2606V5.97444C19.647 5.93707 19.6612 5.90123 19.6865 5.8748C19.7117 5.84838 19.746 5.83353 19.7818 5.83353H21.7934C22.1654 5.83301 22.5234 5.98187 22.7934 6.24935C23.0634 6.51684 23.2247 6.8825 23.2441 7.27078V15.9731C23.2441 17.1737 23.8697 17.664 25.3474 17.664C26.8251 17.664 27.4507 17.1511 27.4507 15.9731V7.32714C27.4709 6.93761 27.631 6.5704 27.8989 6.29877C28.1668 6.02713 28.5228 5.87107 28.896 5.86171H30.913M30.913 5.72081H28.9122C28.5033 5.73025 28.113 5.90118 27.8198 6.19921C27.5267 6.49723 27.3524 6.90024 27.332 7.32714V15.9731C27.332 17.1004 26.7604 17.5457 25.3636 17.5457C23.9668 17.5457 23.3951 17.0891 23.3951 15.9731V7.27078C23.3681 6.84792 23.1902 6.45108 22.8966 6.15881C22.603 5.86654 22.215 5.70016 21.8096 5.69263H19.798C19.7269 5.69407 19.6591 5.72422 19.6088 5.77676C19.5586 5.8293 19.5297 5.90015 19.5283 5.97444V16.2775C19.5283 19.2422 21.6855 21.0119 25.3636 21.0119C29.0416 21.0119 31.1988 19.2422 31.1988 16.2775V5.97444C31.1974 5.90015 31.1686 5.8293 31.1183 5.77676C31.068 5.72422 31.0002 5.69407 30.9292 5.69263L30.913 5.72081Z" fill="#273D83"/>
<path d="M46.1264 5.8335H44.2928C43.9193 5.8353 43.5602 5.98431 43.2873 6.25075C43.0143 6.51719 42.8476 6.88144 42.8205 7.27074V15.4038C41.9468 13.589 39.0993 7.71037 38.8297 7.20874C38.6705 6.8048 38.401 6.45888 38.0547 6.21426C37.7084 5.96964 37.3007 5.83719 36.8828 5.8335H34.0245C33.9887 5.8335 33.9544 5.84834 33.9291 5.87477C33.9039 5.90119 33.8896 5.93703 33.8896 5.9744V20.5159C33.8896 20.5533 33.9039 20.5891 33.9291 20.6156C33.9544 20.642 33.9887 20.6568 34.0245 20.6568H35.8797C36.2472 20.642 36.597 20.4881 36.8639 20.2236C37.1308 19.9592 37.2966 19.6023 37.3304 19.2196V11.5205C38.1933 13.2113 40.9653 18.7405 41.2511 19.2872C41.4474 19.6614 41.7266 19.981 42.0653 20.2193C42.404 20.4576 42.7924 20.6076 43.198 20.6568H46.1264C46.1622 20.6568 46.1965 20.642 46.2217 20.6156C46.247 20.5891 46.2612 20.5533 46.2612 20.5159V5.9744C46.2612 5.93703 46.247 5.90119 46.2217 5.87477C46.1965 5.84834 46.1622 5.8335 46.1264 5.8335Z" fill="url(#paint6_linear_530_1154)"/>
<path d="M46.1265 5.83354C46.1622 5.83354 46.1965 5.84838 46.2218 5.87481C46.2471 5.90123 46.2613 5.93707 46.2613 5.97444V20.516C46.2613 20.5533 46.2471 20.5892 46.2218 20.6156C46.1965 20.642 46.1622 20.6569 46.1265 20.6569H43.1981C42.7925 20.6077 42.4041 20.4576 42.0653 20.2194C41.7266 19.9811 41.4474 19.6615 41.2512 19.2873C40.9653 18.7236 38.1933 13.2339 37.3305 11.5205V19.2196C37.2967 19.6024 37.1309 19.9592 36.864 20.2237C36.5971 20.4881 36.2472 20.6421 35.8797 20.6569H34.0245C33.9888 20.6569 33.9545 20.642 33.9292 20.6156C33.9039 20.5892 33.8897 20.5533 33.8897 20.516V5.97444C33.8897 5.93707 33.9039 5.90123 33.9292 5.87481C33.9545 5.84838 33.9888 5.83354 34.0245 5.83354H36.9044C37.3187 5.84162 37.7216 5.97611 38.0637 6.22046C38.4058 6.4648 38.672 6.80833 38.8297 7.20878C39.0778 7.71041 41.9253 13.589 42.799 15.4039V7.27078C42.8261 6.88148 42.9928 6.51723 43.2658 6.25079C43.5387 5.98435 43.8978 5.83534 44.2713 5.83354H46.1049M46.1049 5.69263H44.2713C43.8602 5.69168 43.4642 5.85427 43.1637 6.14738C42.8632 6.44049 42.6808 6.84215 42.6534 7.27078V14.8121C41.5262 12.3998 39.191 7.59205 38.9699 7.14678C38.801 6.7187 38.5148 6.35232 38.1474 6.09361C37.7799 5.8349 37.3475 5.69541 36.9044 5.69263H34.0245C33.953 5.69263 33.8844 5.72232 33.8339 5.77517C33.7833 5.82802 33.7549 5.8997 33.7549 5.97444V20.516C33.7549 20.5907 33.7833 20.6624 33.8339 20.7152C33.8844 20.7681 33.953 20.7978 34.0245 20.7978H35.8797C36.2825 20.7815 36.6659 20.6123 36.9578 20.3217C37.2497 20.0312 37.4301 19.6393 37.4653 19.2196V12.0954C38.3983 13.9497 40.8683 18.8589 41.1379 19.3549C41.3458 19.7501 41.6414 20.0875 41.9999 20.3385C42.3583 20.5896 42.7693 20.7471 43.1981 20.7978H46.1265C46.198 20.7978 46.2666 20.7681 46.3171 20.7152C46.3677 20.6624 46.3961 20.5907 46.3961 20.516V5.97444C46.3961 5.8997 46.3677 5.82802 46.3171 5.77517C46.2666 5.72232 46.198 5.69263 46.1265 5.69263H46.1049Z" fill="#273D83"/>
<path d="M59.2587 5.8335H49.314C48.9435 5.83833 48.5884 5.98898 48.3195 6.25538C48.0506 6.52178 47.8877 6.88435 47.8633 7.27074V8.87707C47.8633 8.89557 47.8668 8.9139 47.8735 8.93099C47.8803 8.94809 47.8903 8.96362 47.9028 8.9767C47.9153 8.98979 47.9302 9.00017 47.9465 9.00725C47.9629 9.01433 47.9804 9.01797 47.9981 9.01797H51.8325V20.5159C51.8325 20.5533 51.8467 20.5891 51.872 20.6156C51.8973 20.642 51.9316 20.6568 51.9674 20.6568H53.979C54.3512 20.6601 54.7101 20.512 54.9798 20.2438C55.2495 19.9756 55.4089 19.6083 55.4243 19.2196V9.01797H57.9428C58.3113 9.00942 58.6637 8.85828 58.9317 8.59382C59.1997 8.32935 59.3643 7.97037 59.3936 7.58637V5.9744C59.3936 5.93703 59.3794 5.90119 59.3541 5.87477C59.3288 5.84834 59.2945 5.8335 59.2587 5.8335Z" fill="url(#paint7_linear_530_1154)"/>
<path d="M59.2583 5.83353C59.2941 5.83353 59.3284 5.84838 59.3536 5.8748C59.3789 5.90123 59.3931 5.93707 59.3931 5.97444V7.58641C59.3638 7.9704 59.1993 8.32938 58.9313 8.59385C58.6633 8.85832 58.3109 9.00946 57.9424 9.01801H55.4239V19.2196C55.4085 19.6084 55.2491 19.9756 54.9794 20.2438C54.7097 20.512 54.3508 20.6601 53.9785 20.6569H51.9669C51.9312 20.6569 51.8969 20.642 51.8716 20.6156C51.8463 20.5892 51.8321 20.5533 51.8321 20.516V9.01801H47.9977C47.9619 9.01801 47.9276 9.00317 47.9023 8.97674C47.8771 8.95032 47.8629 8.91448 47.8629 8.87711V7.27078C47.8873 6.88439 48.0502 6.52182 48.3191 6.25542C48.588 5.98901 48.9431 5.83837 49.3136 5.83353H59.2583ZM59.2583 5.69263H49.3136C48.9081 5.70016 48.5202 5.86654 48.2266 6.15881C47.9329 6.45108 47.755 6.84792 47.728 7.27078V8.87711C47.728 8.95185 47.7564 9.02353 47.807 9.07638C47.8576 9.12923 47.9262 9.15892 47.9977 9.15892H51.6973V20.516C51.6973 20.5907 51.7257 20.6624 51.7763 20.7152C51.8268 20.7681 51.8954 20.7978 51.9669 20.7978H53.9785C54.3847 20.7981 54.7751 20.6338 55.0678 20.3395C55.3605 20.0452 55.5326 19.6438 55.5479 19.2196V9.15892H57.9316C58.3362 9.15149 58.7234 8.9859 59.0169 8.69481C59.3104 8.40372 59.4889 8.00825 59.5172 7.58641V5.97444C59.5172 5.8997 59.4888 5.82802 59.4382 5.77517C59.3876 5.72232 59.319 5.69263 59.2475 5.69263H59.2583Z" fill="#273D83"/>
<path d="M70.4167 5.83348H62.4458C62.0726 5.82875 61.7124 5.97621 61.4415 6.24455C61.1707 6.5129 61.0105 6.881 60.9951 7.27072V20.5159C60.9951 20.5533 61.0093 20.5891 61.0346 20.6155C61.0599 20.642 61.0942 20.6568 61.1299 20.6568H69.1008C69.4713 20.652 69.8264 20.5013 70.0953 20.2349C70.3642 19.9685 70.5272 19.606 70.5516 19.2196V17.6076C70.5516 17.5702 70.5373 17.5344 70.5121 17.508C70.4868 17.4815 70.4525 17.4667 70.4167 17.4667H64.5923V14.5866H68.637C68.8249 14.5972 69.0129 14.5681 69.1897 14.5009C69.3666 14.4338 69.5286 14.3299 69.6661 14.1957C69.8036 14.0615 69.9138 13.8996 69.9899 13.7198C70.0661 13.54 70.1067 13.346 70.1093 13.1493V11.543C70.1093 11.5056 70.0951 11.4698 70.0698 11.4434C70.0445 11.4169 70.0103 11.4021 69.9745 11.4021H64.6138V9.01796H69.1224C69.4951 9.02417 69.8554 8.87797 70.1264 8.61053C70.3974 8.34309 70.5577 7.97557 70.5731 7.58635V5.97439C70.5734 5.95382 70.5693 5.93345 70.5612 5.9147C70.5532 5.89595 70.5412 5.87928 70.5263 5.86585C70.5114 5.85242 70.4939 5.84256 70.475 5.83697C70.456 5.83138 70.4362 5.83019 70.4167 5.83348Z" fill="url(#paint8_linear_530_1154)"/>
<path d="M70.4168 5.83351C70.4525 5.83351 70.4868 5.84836 70.5121 5.87478C70.5374 5.90121 70.5516 5.93705 70.5516 5.97442V7.58638C70.5362 7.9756 70.3759 8.34311 70.1049 8.61056C69.8338 8.878 69.4736 9.0242 69.1009 9.01799H64.5923V11.4021H69.953C69.9887 11.4021 70.023 11.417 70.0483 11.4434C70.0736 11.4698 70.0878 11.5057 70.0878 11.543V13.1494C70.0851 13.344 70.0451 13.5361 69.9703 13.7143C69.8955 13.8926 69.7873 14.0534 69.6521 14.1873C69.5169 14.3212 69.3575 14.4256 69.1832 14.4941C69.0089 14.5627 68.8232 14.5941 68.6371 14.5866H64.5923V17.4724H70.4168C70.4525 17.4724 70.4868 17.4872 70.5121 17.5136C70.5374 17.5401 70.5516 17.5759 70.5516 17.6133V19.2196C70.5272 19.606 70.3643 19.9685 70.0954 20.235C69.8265 20.5014 69.4714 20.652 69.1009 20.6568H61.13C61.0942 20.6568 61.06 20.642 61.0347 20.6156C61.0094 20.5891 60.9952 20.5533 60.9952 20.5159V7.27075C61.0106 6.88103 61.1707 6.51293 61.4416 6.24458C61.7124 5.97624 62.0727 5.82878 62.4459 5.83351H70.4168ZM70.4168 5.6926H62.4459C62.037 5.68789 61.6424 5.8502 61.3463 6.14496C61.0501 6.43972 60.8758 6.84365 60.8604 7.27075V20.5159C60.8604 20.5907 60.8888 20.6624 60.9393 20.7152C60.9899 20.7681 61.0585 20.7977 61.13 20.7977H69.1009C69.5063 20.7902 69.8943 20.6238 70.1879 20.3316C70.4816 20.0393 70.6595 19.6424 70.6864 19.2196V17.6076C70.6864 17.5329 70.658 17.4612 70.6075 17.4084C70.5569 17.3555 70.4883 17.3258 70.4168 17.3258H64.7164V14.7275H68.6263C68.8301 14.735 69.0333 14.6999 69.224 14.6243C69.4147 14.5486 69.589 14.4339 69.7367 14.2869C69.8843 14.1399 70.0025 13.9636 70.0841 13.7682C70.1657 13.5729 70.2091 13.3625 70.2119 13.1494V11.543C70.2119 11.4683 70.1834 11.3966 70.1329 11.3438C70.0823 11.2909 70.0137 11.2612 69.9422 11.2612H64.7164V9.1589H69.0901C69.4985 9.16509 69.8931 9.00404 70.1894 8.71018C70.4857 8.41632 70.6602 8.01297 70.6757 7.58638V5.97442C70.6757 5.89968 70.6472 5.828 70.5967 5.77515C70.5461 5.7223 70.4775 5.6926 70.406 5.6926H70.4168Z" fill="#273D83"/>
<path d="M82.2546 15.5955C83.6513 14.9586 84.3255 13.7412 84.3255 11.8925V10.1001C84.3255 7.15238 82.7669 5.8335 79.2722 5.8335H74.4185C74.0465 5.83297 73.6885 5.98183 73.4185 6.24932C73.1485 6.5168 72.9871 6.88246 72.9678 7.27074V20.5159C72.9678 20.5533 72.982 20.5891 73.0073 20.6156C73.0325 20.642 73.0668 20.6568 73.1026 20.6568H75.1142C75.4875 20.6562 75.8466 20.5075 76.119 20.2407C76.3913 19.9738 76.5565 19.6089 76.5811 19.2196V16.1366H78.3284L80.6097 19.2985C81.2461 20.1777 81.7961 20.6568 82.8801 20.6568H85.3232C85.4095 20.6568 85.485 20.6005 85.5659 20.3356C85.5768 20.3159 85.5825 20.2935 85.5825 20.2707C85.5825 20.248 85.5768 20.2256 85.5659 20.2059L82.2546 15.5955ZM80.7337 10.4045V11.5656C80.7337 12.5294 80.4802 13.0141 79.1158 13.0141H76.5811V9.01798H79.0835C80.4802 9.01798 80.7337 9.48578 80.7337 10.4045Z" fill="url(#paint9_linear_530_1154)"/>
<path d="M79.2772 5.83355C82.7718 5.83355 84.3304 7.15244 84.3304 10.1002V11.8925C84.3304 13.7412 83.6563 14.9586 82.2595 15.5955L85.5654 20.206C85.5763 20.2257 85.582 20.248 85.582 20.2708C85.582 20.2936 85.5763 20.3159 85.5654 20.3356C85.4845 20.6005 85.409 20.6569 85.3227 20.6569H82.8905C81.8119 20.6569 81.2726 20.1778 80.62 19.2985L78.3388 16.1366H76.5806V19.2196C76.5562 19.606 76.3933 19.9686 76.1244 20.235C75.8555 20.5014 75.5004 20.652 75.1299 20.6569H73.1291C73.0934 20.6569 73.0591 20.642 73.0338 20.6156C73.0085 20.5892 72.9943 20.5533 72.9943 20.516V7.2708C73.0134 6.88639 73.1717 6.52397 73.4371 6.25707C73.7026 5.99017 74.0552 5.83876 74.4234 5.83355H79.2772ZM76.5806 13.0141H79.083C80.469 13.0141 80.7009 12.5294 80.7009 11.5656V10.4045C80.7009 9.48584 80.4474 9.01803 79.083 9.01803H76.5806V13.0141ZM79.2772 5.68701H74.4234C74.018 5.69455 73.6301 5.86092 73.3364 6.15319C73.0428 6.44546 72.8649 6.84231 72.8379 7.26516V20.516C72.8393 20.5903 72.8681 20.6611 72.9184 20.7136C72.9687 20.7662 73.0365 20.7963 73.1075 20.7978H75.1191C75.5246 20.7902 75.9125 20.6239 76.2062 20.3316C76.4998 20.0393 76.6777 19.6425 76.7047 19.2196V16.2775H78.2525L78.3657 16.441L80.4906 19.3831C81.1377 20.2792 81.7364 20.7978 82.8689 20.7978H85.3119C85.5223 20.7978 85.614 20.5949 85.6841 20.3807C85.6971 20.3373 85.7004 20.2914 85.6939 20.2465C85.6873 20.2016 85.6711 20.1588 85.6463 20.1214L82.4429 15.6519C83.7857 14.9699 84.4383 13.7356 84.4383 11.8925V10.1002C84.4383 7.05098 82.8204 5.69265 79.2502 5.69265L79.2772 5.68701ZM76.7317 9.29984H79.0992C80.3881 9.29984 80.6038 9.68311 80.6038 10.5455V11.7065C80.6038 12.614 80.3881 13.0141 79.0992 13.0141H76.7317V9.15894V9.29984Z" fill="#273D83"/>
<path d="M92.9593 11.729C90.6672 11.1935 90.6672 11.1935 90.6672 9.90283C90.6672 8.96721 90.8776 8.71358 92.3499 8.71358C93.1888 8.69987 94.0274 8.75641 94.8576 8.88267C95.0895 8.93245 95.3286 8.93367 95.5609 8.88626C95.7933 8.83886 96.0143 8.74377 96.2113 8.60649C96.3602 8.48615 96.4847 8.3359 96.5773 8.16458C96.6699 7.99326 96.7288 7.80433 96.7506 7.60888C96.8422 6.90998 96.9124 6.25054 96.9124 6.25054C96.9157 6.21571 96.9065 6.18082 96.8865 6.15269C96.8666 6.12456 96.8374 6.10519 96.8045 6.09836C95.3225 5.78123 93.814 5.61885 92.3013 5.61365C88.3914 5.61365 87.0701 6.6789 87.0701 9.81829C87.0701 13.0873 87.7011 13.7975 91.2767 14.5584C93.655 15.0769 93.655 15.2009 93.655 16.4127C93.655 17.5399 93.4177 17.8161 91.7458 17.8161C90.84 17.8152 89.9366 17.7189 89.0493 17.5287C87.5878 17.213 87.1726 18.0585 87.0539 18.5939L86.8274 19.7606C86.8199 19.7935 86.824 19.8281 86.8388 19.8581C86.8536 19.8881 86.8783 19.9115 86.9083 19.9241C88.437 20.5505 90.0661 20.8661 91.7081 20.8541C95.3052 20.8541 97.2521 20.1495 97.2521 16.4127C97.2521 13.5664 97.0741 12.6984 92.9593 11.729Z" fill="url(#paint10_linear_530_1154)"/>
<path d="M92.3068 5.63625C93.8196 5.64146 95.328 5.80383 96.81 6.12097C96.8429 6.1278 96.8721 6.14716 96.892 6.1753C96.912 6.20343 96.9212 6.23831 96.9179 6.27315C96.9179 6.27315 96.8478 6.93259 96.7561 7.63148C96.7343 7.82693 96.6754 8.01587 96.5828 8.18718C96.4902 8.3585 96.3657 8.50875 96.2168 8.6291C95.9312 8.83775 95.5889 8.94449 95.2406 8.93345C95.1144 8.93229 94.9883 8.92288 94.8631 8.90527C94.0329 8.77902 93.1943 8.72247 92.3554 8.73619C90.8831 8.73619 90.6728 8.98982 90.6728 9.92543C90.6728 11.2161 90.6728 11.2161 92.9648 11.7516C97.0743 12.721 97.2792 13.589 97.2792 16.4522C97.2792 20.189 95.3323 20.8936 91.7352 20.8936C90.0867 20.9024 88.4519 20.581 86.9192 19.9467C86.8892 19.9341 86.8646 19.9107 86.8497 19.8807C86.8349 19.8507 86.8308 19.8161 86.8383 19.7832L87.0918 18.6165C87.1531 18.2808 87.3304 17.9804 87.59 17.7725C87.8496 17.5647 88.1733 17.4638 88.4994 17.4893C88.6973 17.4911 88.8944 17.5156 89.0872 17.5625C89.9745 17.7528 90.8779 17.8491 91.7837 17.85C93.4555 17.85 93.6928 17.5513 93.6928 16.4466C93.6928 15.2348 93.6928 15.1108 91.3145 14.5922C87.7389 13.8314 87.108 13.1212 87.108 9.85216C87.108 6.71277 88.4293 5.64752 92.3392 5.64752M92.3392 5.50662C88.3753 5.50662 86.9731 6.63387 86.9731 9.85216C86.9731 13.1775 87.6581 13.9553 91.2876 14.7331C93.558 15.2235 93.558 15.2968 93.558 16.424C93.558 17.3653 93.4717 17.6865 91.7837 17.6865C90.8885 17.688 89.9956 17.5917 89.1196 17.3991C88.9174 17.3537 88.7115 17.3292 88.5048 17.3258C88.1457 17.2978 87.7894 17.4104 87.5054 17.6417C87.2213 17.8729 87.0297 18.2063 86.9677 18.5771L86.6819 19.7269C86.6668 19.7911 86.6743 19.8589 86.7031 19.9178C86.7318 19.9768 86.7798 20.023 86.8383 20.0481C88.3826 20.6895 90.0303 21.0148 91.692 21.0063C93.7737 21.0063 95.0249 20.7583 95.8878 20.1665C96.9017 19.4676 97.3709 18.2783 97.3709 16.424C97.3709 13.5383 97.1713 12.5745 92.9702 11.5881C90.813 11.0752 90.813 11.0752 90.813 9.89725C90.813 9.10254 90.8831 8.84891 92.3608 8.84891C93.1923 8.83595 94.0235 8.8906 94.8469 9.01236C94.9789 9.03459 95.1124 9.0459 95.246 9.04618C95.6309 9.063 96.0102 8.94606 96.3246 8.71364C96.4889 8.58205 96.6264 8.41759 96.7292 8.22985C96.832 8.04212 96.8979 7.83487 96.9233 7.62021C97.0149 6.92131 97.0851 6.26187 97.0851 6.26187C97.093 6.19196 97.0751 6.12153 97.035 6.06496C96.9949 6.00839 96.9356 5.96996 96.8693 5.95752C95.3788 5.63598 93.8611 5.47171 92.3392 5.46716V5.50662Z" fill="#273D83"/>
<path d="M6.89209 20.2511V13.9103C7.20488 14.4739 9.41063 14.7952 11.9292 14.7332C14.4477 14.6712 16.5726 14.4457 16.9663 13.9103C16.3407 15.2179 14.8899 15.8379 12.49 15.8379H9.70725V19.2196C9.68422 19.5017 9.5605 19.7644 9.36066 19.9555C9.16083 20.1466 8.89951 20.2521 8.62864 20.2511H6.89209Z" fill="#D0D2D3"/>
<path d="M12.6681 6.38018C15.8446 6.38018 17.1982 7.50743 17.1982 10.1001V11.9995C17.22 12.6358 17.1 13.2687 16.8477 13.8482C16.2437 15.1107 14.863 15.6969 12.4901 15.6969H9.70731C9.67198 15.6983 9.63846 15.7136 9.61346 15.7397C9.58845 15.7658 9.57382 15.8009 9.57249 15.8378V19.2195C9.55457 19.4662 9.44661 19.6962 9.27093 19.862C9.09525 20.0277 8.86531 20.1166 8.62871 20.1101H7.0108V7.27071C7.0399 7.0317 7.149 6.81116 7.31878 6.64817C7.48856 6.48517 7.70806 6.39024 7.9384 6.38018H12.6519M9.70731 13.6735H12.4901C14.0271 13.6735 14.6473 13.1099 14.6473 11.6726V10.4045C14.6527 9.01795 14.0217 8.45432 12.4901 8.45432H9.70731C9.67155 8.45432 9.63726 8.46917 9.61198 8.49559C9.58669 8.52202 9.57249 8.55786 9.57249 8.59523V13.5269C9.57249 13.5643 9.58669 13.6002 9.61198 13.6266C9.63726 13.653 9.67155 13.6678 9.70731 13.6678M12.6681 6.23364H7.95458C7.68582 6.24008 7.4284 6.34814 7.23006 6.53781C7.03173 6.72747 6.90592 6.98586 6.87598 7.26508V20.2284H8.62871C8.89957 20.2295 9.16089 20.1239 9.36073 19.9328C9.56057 19.7417 9.68429 19.4791 9.70731 19.197V15.8153H12.4901C14.89 15.8153 16.3407 15.2065 16.9663 13.8877C17.2281 13.2889 17.3537 12.6349 17.333 11.977V10.1001C17.333 7.39471 15.9416 6.23928 12.6681 6.23928V6.23364ZM9.70731 13.5269V8.61214H12.4901C13.9462 8.61214 14.5179 9.11376 14.5179 10.4045V11.6726C14.5179 13.0084 13.9462 13.5326 12.4901 13.5326L9.70731 13.5269Z" fill="url(#paint11_linear_530_1154)"/>
<path d="M25.3473 20.4652C21.9712 20.4652 20.0352 18.9378 20.0352 16.2775V13.9103C20.0352 14.4232 22.8557 14.8008 22.8557 14.2485V15.9731C22.8557 18.0924 24.7325 18.0924 25.3473 18.0924C25.9621 18.0924 27.8389 18.0924 27.8389 15.9731V14.2485C27.8389 14.6937 30.6594 14.4457 30.6594 13.9103V16.2775C30.6756 18.9378 28.7395 20.4652 25.3473 20.4652Z" fill="#D0D2D3"/>
<path d="M30.5407 6.38017V16.2774C30.5407 18.8532 28.6531 20.3242 25.3634 20.3242C22.0737 20.3242 20.1861 18.8532 20.1861 16.2774V6.38017H21.804C22.0375 6.37936 22.2627 6.4706 22.4346 6.63567C22.6065 6.80074 22.7126 7.0275 22.7316 7.2707V15.9731C22.7316 17.4723 23.6161 18.2276 25.358 18.2276C27.0999 18.2276 27.9844 17.4667 27.9844 15.9731V7.32706C28.0052 7.08301 28.1102 6.85519 28.2799 6.68613C28.4496 6.51708 28.6724 6.41834 28.9066 6.40835H30.5245M30.6593 6.26745H28.912C28.6368 6.26693 28.3718 6.37636 28.1713 6.57335C27.9708 6.77033 27.8499 7.03997 27.8334 7.32706V15.9731C27.8334 18.0923 25.9566 18.0923 25.3418 18.0923C24.727 18.0923 22.8502 18.0923 22.8502 15.9731V7.2707C22.8272 6.98864 22.7035 6.72596 22.5037 6.53486C22.3038 6.34376 22.0425 6.23824 21.7716 6.23927H20.0513V16.2774C20.0513 18.9377 21.9874 20.4651 25.3634 20.4651C28.7394 20.4651 30.6755 18.9377 30.6755 16.2774V6.23927L30.6593 6.26745Z" fill="url(#paint12_linear_530_1154)"/>
<path d="M43.2087 14.0117V15.7421L42.6371 15.9281C42.2836 15.3601 41.9906 14.7534 41.7634 14.1188C41.5693 14.519 39.288 14.4739 39.0669 14.1188C39.4174 14.6035 41.3967 18.7349 41.5854 19.09C41.748 19.4034 41.9795 19.6721 42.2607 19.874C42.542 20.0758 42.865 20.205 43.2033 20.2511H45.8998V13.8427C45.8729 14.6543 43.2087 14.6543 43.2087 14.0117Z" fill="#D0D2D3"/>
<path d="M34.2778 13.8427V20.2511H35.8957C36.1631 20.24 36.4182 20.1304 36.6156 19.9416C36.8131 19.7528 36.9401 19.497 36.9743 19.2196V14.1808C36.942 14.7614 34.2778 14.5303 34.2778 13.8427Z" fill="#D0D2D3"/>
<path d="M45.738 6.38029V20.1102H43.1979C42.8867 20.0598 42.5908 19.9355 42.3328 19.747C42.0747 19.5584 41.8615 19.3105 41.7094 19.0224C41.4775 18.5997 39.3958 14.4458 38.2902 12.2251L37.6431 10.9287C37.6298 10.9068 37.6115 10.8886 37.5898 10.8758C37.5682 10.8631 37.5439 10.8561 37.519 10.8555H37.4813L36.9096 11.0471C36.8831 11.0556 36.8598 11.0727 36.8433 11.0961C36.8268 11.1194 36.8179 11.1477 36.8179 11.1767V19.2197C36.7849 19.4569 36.6746 19.675 36.5056 19.8372C36.3366 19.9994 36.1194 20.0958 35.8903 20.1102H34.4127V6.38029H36.9042C37.2265 6.38579 37.5398 6.49173 37.804 6.68453C38.0682 6.87734 38.2713 7.14821 38.3873 7.46245C38.6084 7.90771 41.0838 13.0649 42.2973 15.5392L42.5184 15.9901C42.5297 16.013 42.5467 16.0324 42.5675 16.0462C42.5884 16.0601 42.6123 16.0679 42.637 16.069H42.6748L43.2518 15.8886C43.2788 15.8791 43.3022 15.8609 43.3187 15.8366C43.3352 15.8123 43.3439 15.7831 43.3435 15.7534V7.29899C43.371 7.05531 43.4826 6.83047 43.6573 6.66656C43.832 6.50264 44.0579 6.41089 44.2927 6.40847H45.738M45.8728 6.26756H44.2927C44.0218 6.26654 43.7605 6.37206 43.5606 6.56316C43.3608 6.75425 43.2371 7.01693 43.2141 7.29899V15.7534L42.6424 15.9394C41.6123 13.8089 38.7433 7.8908 38.506 7.39481C38.3735 7.06055 38.149 6.77495 37.8609 6.57426C37.5729 6.37356 37.2342 6.26682 36.8881 6.26756H34.2778V20.2511H35.8957C36.1631 20.2401 36.4182 20.1304 36.6156 19.9416C36.8131 19.7528 36.9401 19.497 36.9743 19.2197V11.1824L37.5136 10.9964C38.1177 12.1913 41.2888 18.5264 41.6016 19.09C41.7642 19.4035 41.9956 19.6721 42.2768 19.874C42.5581 20.0758 42.8811 20.2051 43.2195 20.2511H45.916V6.23938L45.8728 6.26756Z" fill="url(#paint13_linear_530_1154)"/>
<path d="M52.2207 20.251V13.8821C52.2207 14.4457 55.0359 14.4457 55.0359 13.8821V19.2196C55.0219 19.5052 54.9009 19.7735 54.699 19.9665C54.4971 20.1596 54.2307 20.2618 53.9573 20.251H52.2207Z" fill="#D0D2D3"/>
<path d="M58.87 6.38017V7.58633C58.8372 7.82169 58.7264 8.03756 58.5569 8.19621C58.3873 8.35486 58.1698 8.44621 57.9424 8.45431H55.0355C54.9998 8.45431 54.9655 8.46915 54.9402 8.49558C54.9149 8.522 54.9007 8.55785 54.9007 8.59522V19.2195C54.8881 19.4642 54.7848 19.6941 54.6126 19.8604C54.4404 20.0267 54.2129 20.1163 53.9785 20.1101H52.3606V8.61212C52.3606 8.57475 52.3464 8.53891 52.3211 8.51249C52.2958 8.48606 52.2615 8.47122 52.2258 8.47122H48.3859V7.2707C48.4096 7.02941 48.5171 6.80555 48.688 6.64146C48.8589 6.47737 49.0815 6.38442 49.3135 6.38017H58.87ZM59.0048 6.23927H49.2974C49.0265 6.23824 48.7652 6.34376 48.5653 6.53486C48.3655 6.72596 48.2418 6.98864 48.2188 7.2707V8.61212H52.188V20.251H53.9461C54.2196 20.2617 54.486 20.1595 54.6879 19.9665C54.8897 19.7734 55.0108 19.5051 55.0247 19.2195V8.61212H57.9316C58.2016 8.61327 58.4622 8.50853 58.6619 8.3186C58.8616 8.12868 58.9859 7.86738 59.0102 7.58633V6.23927H59.0048Z" fill="url(#paint14_linear_530_1154)"/>
<path d="M61.3833 20.251V14.0906C61.3833 14.8627 64.2039 14.7444 64.2039 14.1638V17.8556H70.1362V19.2196C70.1132 19.5016 69.9894 19.7643 69.7896 19.9554C69.5898 20.1465 69.3284 20.252 69.0576 20.251H61.3833Z" fill="#D0D2D3"/>
<path d="M82.8908 20.251C81.9578 20.251 81.5156 19.8621 80.9331 19.0561C80.3507 18.2502 79.2667 16.7453 78.8083 16.114L78.5332 15.7307H76.2034V19.2196C76.1804 19.5016 76.0567 19.7643 75.8568 19.9554C75.657 20.1465 75.3957 20.252 75.1248 20.251H73.3667V13.8877C74.3806 15.2686 82.2005 14.936 83.511 13.8877C83.2005 14.4878 82.7014 14.9576 82.098 15.2178L81.6504 15.4264L85.1073 20.2454L82.8908 20.251Z" fill="#D0D2D3"/>
<path d="M96.729 14.4176C96.2329 14.9023 94.2267 14.8459 91.336 14.1639C93.8653 14.6825 94.0325 14.8516 94.0325 16.4184C94.0325 17.8388 93.5364 18.2277 91.7351 18.2277C90.8107 18.2254 89.889 18.1234 88.9846 17.9233C88.8163 17.8848 88.6446 17.864 88.4723 17.8613C88.2321 17.8339 87.9911 17.9049 87.7999 18.0594C87.6088 18.2139 87.4825 18.4399 87.4476 18.6898L87.2373 19.6367C88.6683 20.1896 90.1825 20.4702 91.7081 20.4653C95.2028 20.4653 96.8638 19.8622 96.8638 16.4297C96.8566 15.7568 96.8115 15.085 96.729 14.4176Z" fill="#D0D2D3"/>
<path d="M70.0284 6.3802V7.58636C70.0105 7.82803 69.904 8.05315 69.7312 8.21484C69.5584 8.37653 69.3326 8.46232 69.1008 8.45434H64.2039C64.1682 8.45434 64.1339 8.46918 64.1086 8.49561C64.0833 8.52203 64.0691 8.55787 64.0691 8.59525V11.8361C64.0691 11.8735 64.0833 11.9093 64.1086 11.9357C64.1339 11.9621 64.1682 11.977 64.2039 11.977H69.57V13.1775C69.5658 13.2999 69.5384 13.4202 69.4894 13.5315C69.4404 13.6427 69.3707 13.7427 69.2844 13.8256C69.1981 13.9084 69.0969 13.9725 68.9867 14.0141C68.8765 14.0558 68.7594 14.0741 68.6424 14.068H64.2093C64.1735 14.068 64.1393 14.0829 64.114 14.1093C64.0887 14.1357 64.0745 14.1716 64.0745 14.2089V17.9007C64.0745 17.9192 64.078 17.9375 64.0847 17.9546C64.0915 17.9717 64.1015 17.9872 64.114 18.0003C64.1265 18.0134 64.1414 18.0238 64.1577 18.0309C64.1741 18.0379 64.1916 18.0416 64.2093 18.0416H70.0338V19.2196C70.009 19.4604 69.9011 19.6836 69.7305 19.8474C69.5598 20.0113 69.3379 20.1046 69.1062 20.1101H61.5182V7.27073C61.5321 7.02555 61.6366 6.79561 61.8097 6.62945C61.9828 6.46329 62.2109 6.37392 62.4458 6.3802H70.0284ZM70.1632 6.23929H62.4458C62.1724 6.22855 61.9059 6.33075 61.704 6.52378C61.5022 6.71681 61.3812 6.98515 61.3672 7.27073V20.2341H69.0846C69.3555 20.2351 69.6168 20.1296 69.8166 19.9385C70.0165 19.7474 70.1402 19.4847 70.1632 19.2027V17.8725H64.2309V14.1808H68.6639C68.8002 14.1899 68.9368 14.1702 69.0656 14.1228C69.1944 14.0755 69.3127 14.0014 69.4134 13.9051C69.5141 13.8088 69.5952 13.6922 69.6518 13.5623C69.7083 13.4324 69.7392 13.292 69.7426 13.1493V11.8361H64.2039V8.61215H69.1008C69.3737 8.62442 69.6402 8.5235 69.8422 8.33137C70.0442 8.13923 70.1654 7.87145 70.1794 7.58636V6.23929H70.1632Z" fill="url(#paint15_linear_530_1154)"/>
<path d="M79.2776 6.38019C82.454 6.38019 83.8077 7.50744 83.8077 10.1001V11.8924C83.8077 13.527 83.2684 14.5471 82.0496 15.0938L81.6019 15.3024C81.5838 15.3107 81.5676 15.3231 81.5546 15.3387C81.5415 15.3542 81.5319 15.3726 81.5264 15.3925C81.517 15.4117 81.5121 15.433 81.5121 15.4545C81.5121 15.4761 81.517 15.4974 81.5264 15.5165L84.8216 20.1101H82.8909C82.0118 20.1101 81.6073 19.755 81.0411 18.9828C80.4748 18.2107 79.3692 16.672 78.9162 16.0407L78.6412 15.6575C78.6283 15.6403 78.612 15.6263 78.5933 15.6165C78.5747 15.6068 78.5542 15.6015 78.5333 15.6011H76.2035C76.1678 15.6011 76.1335 15.6159 76.1082 15.6424C76.0829 15.6688 76.0687 15.7046 76.0687 15.742V19.2196C76.0439 19.4604 75.9361 19.6835 75.7654 19.8474C75.5947 20.0113 75.3728 20.1046 75.1411 20.1101H73.5232V7.27072C73.5418 7.03231 73.644 6.80949 73.8102 6.6451C73.9765 6.48071 74.195 6.38636 74.4238 6.38019H79.2776ZM76.2035 13.5608H79.0942C80.6312 13.5608 81.2514 12.9971 81.2514 11.5655V10.4045C81.2514 9.03486 80.6258 8.47124 79.0942 8.47124H76.2035C76.1678 8.47124 76.1335 8.48608 76.1082 8.51251C76.0829 8.53893 76.0687 8.57477 76.0687 8.61214V13.4199C76.0687 13.4572 76.0829 13.4931 76.1082 13.5195C76.1335 13.5459 76.1678 13.5608 76.2035 13.5608ZM79.2722 6.23365H74.4184C74.1476 6.23263 73.8863 6.33815 73.6864 6.52925C73.4866 6.72034 73.3629 6.98302 73.3398 7.26508V20.2284H75.098C75.3688 20.2295 75.6301 20.1239 75.83 19.9329C76.0298 19.7418 76.1535 19.4791 76.1766 19.197V15.7307H78.5064L78.7814 16.114C79.2398 16.7452 80.3508 18.2952 80.9062 19.0561C81.4617 19.817 81.9309 20.251 82.8639 20.251H85.0804L81.6235 15.432L82.0711 15.2235C83.3277 14.6598 83.9102 13.5889 83.9102 11.8924V10.1001C83.9102 7.39472 82.5188 6.23929 79.2452 6.23929L79.2722 6.23365ZM76.2035 13.4199V8.61214H79.0942C80.5503 8.61214 81.122 9.11377 81.122 10.4045V11.5655C81.122 12.9013 80.5503 13.4199 79.0942 13.4199H76.2035Z" fill="url(#paint16_linear_530_1154)"/>
<path d="M92.3067 6.16036C93.6656 6.16627 95.0211 6.30021 96.3569 6.56053C96.3569 6.81417 96.2868 7.16925 96.2383 7.52997C96.225 7.65441 96.1881 7.77484 96.1298 7.8842C96.0714 7.99356 95.9928 8.08966 95.8985 8.16686C95.704 8.30672 95.471 8.37602 95.2352 8.36413C95.1364 8.37231 95.0373 8.37231 94.9385 8.36413C94.0815 8.23357 93.2159 8.17515 92.3499 8.18941C90.8884 8.18941 90.1441 8.45995 90.1441 9.92537C90.1441 11.6557 90.5594 11.7515 92.8407 12.287C96.729 13.2 96.729 13.8933 96.729 16.4521C96.729 19.7888 95.1812 20.3468 91.7081 20.3468C90.2378 20.3499 88.7781 20.0868 87.3937 19.569L87.5771 18.7405C87.6079 18.5229 87.7186 18.3264 87.8858 18.1928C88.0529 18.0591 88.2633 17.9988 88.4723 18.0247C88.6357 18.0278 88.7984 18.0486 88.9577 18.0867C89.8766 18.2864 90.8127 18.3865 91.7513 18.3854C93.6388 18.3854 94.1835 17.9514 94.1835 16.4352C94.1835 14.7838 93.7575 14.564 91.3899 14.0455C88.0571 13.3353 87.6148 12.8224 87.6148 9.84083C87.6148 7.02271 88.6934 6.18291 92.3229 6.18291M92.3229 6.042C88.6125 6.042 87.4692 6.93253 87.4692 9.84083C87.4692 12.89 87.9762 13.4593 91.3684 14.1864C93.7143 14.6936 94.0649 14.874 94.0649 16.4409C94.0649 17.8612 93.5687 18.2501 91.7674 18.2501C90.8315 18.2428 89.8988 18.1332 88.9846 17.9232C88.8163 17.8847 88.6446 17.8639 88.4723 17.8612C88.2321 17.8337 87.9911 17.9048 87.7999 18.0593C87.6088 18.2138 87.4825 18.4398 87.4476 18.6897L87.2373 19.6366C88.6683 20.1894 90.1825 20.4701 91.7081 20.4652C95.2028 20.4652 96.8638 19.8621 96.8638 16.4296C96.8638 13.8482 96.8639 13.0479 92.873 12.1291C90.5756 11.5655 90.279 11.5204 90.279 9.90283C90.279 8.53886 90.9207 8.30777 92.3499 8.30777C93.2087 8.29332 94.0672 8.35176 94.917 8.48249C95.0229 8.49068 95.1292 8.49068 95.2352 8.48249C95.5002 8.49479 95.7617 8.41556 95.9794 8.25704C96.1975 8.0787 96.3391 7.81723 96.3731 7.52997C96.427 7.09598 96.4755 6.6789 96.5079 6.40272C95.1233 6.12406 93.7168 5.98066 92.3067 5.97437L92.3229 6.042Z" fill="url(#paint17_linear_530_1154)"/>
<path d="M146.367 5.83349H144.355C143.978 5.84335 143.619 6.00354 143.351 6.28123C143.083 6.55892 142.927 6.9331 142.915 7.32709V15.9731C142.915 17.1736 142.284 17.664 140.812 17.664C139.339 17.664 138.703 17.1511 138.703 15.9731V7.27073C138.684 6.88245 138.522 6.51679 138.252 6.2493C137.982 5.98182 137.624 5.83296 137.252 5.83349H135.246C135.21 5.83349 135.176 5.84833 135.151 5.87476C135.126 5.90118 135.111 5.93702 135.111 5.97439V16.2774C135.111 19.1576 137.242 20.871 140.812 20.871C144.382 20.871 146.507 19.1801 146.507 16.2774V5.97439C146.507 5.9554 146.503 5.93661 146.496 5.91914C146.489 5.90166 146.479 5.88587 146.465 5.87271C146.452 5.85955 146.437 5.84929 146.42 5.84255C146.403 5.83581 146.385 5.83273 146.367 5.83349Z" fill="url(#paint18_linear_530_1154)"/>
<path d="M161.57 5.8335H159.736C159.362 5.8353 159.003 5.98431 158.73 6.25075C158.457 6.51719 158.291 6.88144 158.264 7.27074V15.4038C157.385 13.589 154.542 7.71037 154.294 7.20874C154.132 6.80736 153.861 6.46383 153.516 6.21976C153.17 5.97568 152.764 5.84151 152.347 5.8335H149.468C149.432 5.8335 149.398 5.84834 149.372 5.87477C149.347 5.90119 149.333 5.93703 149.333 5.9744V20.5159C149.333 20.5533 149.347 20.5891 149.372 20.6156C149.398 20.642 149.432 20.6568 149.468 20.6568H151.317C151.685 20.6432 152.036 20.4897 152.303 20.225C152.57 19.9603 152.735 19.6028 152.768 19.2196V11.5205C153.631 13.2113 156.408 18.7405 156.694 19.2872C156.89 19.6614 157.17 19.981 157.508 20.2193C157.847 20.4576 158.236 20.6076 158.641 20.6568H161.57C161.605 20.6568 161.64 20.642 161.665 20.6156C161.69 20.5891 161.704 20.5533 161.704 20.5159V5.9744C161.704 5.93703 161.69 5.90119 161.665 5.87477C161.64 5.84834 161.605 5.8335 161.57 5.8335Z" fill="url(#paint19_linear_530_1154)"/>
<path d="M185.86 9.01803C186.232 9.02424 186.593 8.87804 186.864 8.61059C187.135 8.34315 187.295 7.97564 187.31 7.58642V5.97445C187.31 5.93708 187.296 5.90124 187.271 5.87482C187.246 5.84839 187.211 5.83355 187.176 5.83355H179.199C178.827 5.83029 178.468 5.97841 178.198 6.2466C177.929 6.51479 177.769 6.88205 177.754 7.27079V20.516C177.754 20.5533 177.768 20.5892 177.793 20.6156C177.819 20.642 177.853 20.6569 177.889 20.6569H185.86C186.23 20.6507 186.584 20.4997 186.853 20.2335C187.121 19.9674 187.285 19.6056 187.31 19.2196V17.6077C187.309 17.5707 187.294 17.5357 187.269 17.5096C187.244 17.4834 187.211 17.4682 187.176 17.4668H181.346V14.5866H185.396C185.581 14.5934 185.767 14.5614 185.94 14.4925C186.114 14.4236 186.273 14.3191 186.407 14.1853C186.542 14.0515 186.65 13.8909 186.724 13.713C186.799 13.5352 186.838 13.3435 186.841 13.1494V11.5431C186.841 11.5057 186.827 11.4699 186.802 11.4434C186.776 11.417 186.742 11.4022 186.706 11.4022H181.346V9.01803H185.86Z" fill="url(#paint20_linear_530_1154)"/>
<path d="M126.736 5.63623C122.422 5.63623 120.879 8.01473 120.879 10.2354V16.2775C120.901 18.4981 122.422 20.8541 126.736 20.8541C131.05 20.8541 132.587 18.4812 132.587 16.2606V10.2129C132.609 7.99218 131.05 5.63623 126.736 5.63623ZM128.996 16.0182C128.996 17.1454 128.235 17.7091 126.736 17.7091C125.237 17.7091 124.476 17.1454 124.476 16.0182V10.4947C124.476 9.36743 125.237 8.8038 126.736 8.8038C128.235 8.8038 128.996 9.36743 128.996 10.4947V16.0182Z" fill="url(#paint21_linear_530_1154)"/>
<path d="M174.788 13.0592H172.981C172.612 13.0676 172.259 13.2185 171.99 13.4829C171.721 13.7472 171.556 14.1063 171.525 14.4908V17.5287C170.971 17.6089 170.412 17.6466 169.853 17.6414C168.505 17.6414 167.906 17.0496 167.906 15.7138V10.7089C167.906 9.79578 168.138 8.86016 169.853 8.86016C170.527 8.86016 171.73 8.91653 172.712 9.01798C173.141 9.07271 173.574 8.96532 173.934 8.7152C174.294 8.46508 174.557 8.0887 174.675 7.65401L174.874 6.22804C174.879 6.19147 174.87 6.15447 174.848 6.12496C174.827 6.09546 174.796 6.0758 174.761 6.07022C173.148 5.78584 171.516 5.64068 169.88 5.63623C166.359 5.63623 164.336 7.3271 164.336 10.2354V16.2775C164.309 19.1632 166.38 20.8541 169.88 20.8541C170.95 20.8489 172.018 20.7508 173.073 20.561C173.963 20.4088 174.95 19.5521 174.95 18.5545V13.2001C174.95 13.1789 174.946 13.158 174.938 13.1387C174.929 13.1195 174.917 13.1025 174.901 13.089C174.886 13.0754 174.867 13.0657 174.848 13.0606C174.828 13.0554 174.808 13.0549 174.788 13.0592Z" fill="url(#paint22_linear_530_1154)"/>
<path d="M119.38 17.4723H113.663V5.9744C113.663 5.93703 113.649 5.90119 113.624 5.87477C113.599 5.84834 113.564 5.8335 113.528 5.8335H111.522C111.153 5.84218 110.8 5.99411 110.532 6.25974C110.264 6.52538 110.1 6.88573 110.072 7.27074V20.5159C110.072 20.5533 110.086 20.5891 110.111 20.6156C110.136 20.642 110.171 20.6568 110.206 20.6568H118.069C118.44 20.6559 118.797 20.5064 119.066 20.2391C119.335 19.9717 119.495 19.6069 119.515 19.2196V17.6076C119.513 17.5712 119.498 17.5368 119.473 17.5116C119.448 17.4864 119.415 17.4723 119.38 17.4723Z" fill="url(#paint23_linear_530_1154)"/>
<path d="M126.736 20.4652C123.77 20.4652 121.267 18.9378 121.267 16.2775V13.9103C121.267 14.4232 124.066 14.8008 124.066 14.2485V15.9731C124.066 18.0924 125.868 18.0924 126.736 18.0924C127.604 18.0924 129.384 18.0924 129.384 15.9731V14.2485C129.384 14.6937 132.199 14.4457 132.199 13.9103V16.2775C132.221 18.9378 129.724 20.4652 126.736 20.4652Z" fill="#17133B"/>
<path d="M140.806 20.4652C137.43 20.4652 135.494 18.9378 135.494 16.2775V13.9103C135.494 14.4232 138.309 14.8008 138.309 14.2485V15.9731C138.309 18.0924 140.186 18.0924 140.806 18.0924C141.426 18.0924 143.298 18.0924 143.298 15.9731V14.2485C143.298 14.6937 146.113 14.4457 146.113 13.9103V16.2775C146.113 18.9378 144.177 20.4652 140.806 20.4652Z" fill="#17133B"/>
<path d="M158.652 14.0117V15.7421L158.08 15.9281C157.725 15.3614 157.432 14.7544 157.207 14.1188C157.007 14.519 154.726 14.4739 154.51 14.1188C154.861 14.6035 156.84 18.7349 157.029 19.09C157.191 19.4034 157.423 19.6721 157.704 19.874C157.985 20.0758 158.308 20.205 158.646 20.2511H161.343V13.8427C161.316 14.6543 158.652 14.6543 158.652 14.0117Z" fill="#17133B"/>
<path d="M149.716 13.8427V20.2511H151.333C151.601 20.2412 151.857 20.1319 152.054 19.9429C152.252 19.7539 152.379 19.4975 152.412 19.2196V14.1808C152.38 14.7614 149.716 14.5303 149.716 13.8427Z" fill="#17133B"/>
<path d="M178.142 20.251V14.0906C178.142 14.8289 180.957 14.6542 180.957 14.1638V17.8556H186.922V19.2196C186.899 19.5016 186.775 19.7643 186.576 19.9554C186.376 20.1465 186.114 20.252 185.844 20.251H178.142Z" fill="#17133B"/>
<path d="M145.978 6.38017V16.2774C145.978 18.8532 144.091 20.3242 140.806 20.3242C137.522 20.3242 135.629 18.8532 135.629 16.2774V6.38017H137.247C137.48 6.38194 137.704 6.47405 137.875 6.63862C138.046 6.80319 138.153 7.02846 138.175 7.2707V15.9731C138.175 17.4723 139.059 18.2276 140.806 18.2276C142.554 18.2276 143.454 17.4723 143.454 15.9731V7.32706C143.474 7.08256 143.579 6.85406 143.749 6.68477C143.919 6.51548 144.142 6.41714 144.377 6.40835H145.994M146.129 6.26745H144.371C144.096 6.26693 143.831 6.37636 143.63 6.57335C143.43 6.77033 143.309 7.03997 143.293 7.32706V15.9731C143.293 18.0923 141.416 18.0923 140.801 18.0923C140.186 18.0923 138.304 18.0923 138.304 15.9731V7.2707C138.281 6.98864 138.157 6.72596 137.957 6.53486C137.758 6.34376 137.496 6.23824 137.225 6.23927H135.473V16.2774C135.473 18.9377 137.409 20.4651 140.785 20.4651C144.161 20.4651 146.092 18.9377 146.092 16.2774V6.23927L146.129 6.26745Z" fill="url(#paint24_linear_530_1154)"/>
<path d="M161.181 6.38029V20.1102H158.641C158.33 20.0614 158.033 19.9378 157.775 19.7491C157.516 19.5604 157.303 19.3116 157.153 19.0224C156.91 18.5602 154.699 14.1696 153.636 12.056L153.07 10.9287C153.059 10.9065 153.041 10.888 153.021 10.8751C153 10.8622 152.976 10.8554 152.952 10.8555H152.908L152.369 11.0471C152.341 11.0536 152.316 11.0701 152.298 11.0937C152.281 11.1174 152.271 11.1467 152.272 11.1767V19.2197C152.239 19.4569 152.129 19.675 151.96 19.8372C151.791 19.9994 151.573 20.0958 151.344 20.1102H149.878V6.38029H152.375C152.697 6.38579 153.01 6.49173 153.274 6.68453C153.538 6.87734 153.742 7.14821 153.858 7.46245C154.019 7.78935 155.524 10.9006 157.989 15.9901C158 16.013 158.017 16.0324 158.038 16.0462C158.059 16.0601 158.083 16.0679 158.107 16.069H158.145L158.717 15.8886C158.745 15.8801 158.769 15.8623 158.787 15.8379C158.804 15.8135 158.814 15.7838 158.814 15.7534V7.29899C158.841 7.05531 158.953 6.83047 159.128 6.66656C159.302 6.50264 159.528 6.41089 159.763 6.40847H161.208M161.343 6.26756H159.763C159.492 6.26654 159.231 6.37206 159.031 6.56316C158.831 6.75425 158.707 7.01693 158.684 7.29899V15.7534L158.113 15.9394C155.718 10.9851 154.143 7.73862 153.982 7.40608C153.849 7.07226 153.624 6.78708 153.336 6.58648C153.048 6.38588 152.71 6.27883 152.364 6.27883H149.732V20.2511H151.35C151.618 20.2412 151.873 20.1319 152.071 19.9429C152.268 19.7539 152.395 19.4975 152.428 19.2197V11.1824L153 10.9964C153.367 11.7291 156.775 18.5038 157.083 19.09C157.245 19.4035 157.477 19.6721 157.758 19.874C158.039 20.0758 158.362 20.2051 158.701 20.2511H161.397V6.23938L161.343 6.26756Z" fill="url(#paint25_linear_530_1154)"/>
<path d="M186.787 6.3802V7.58636C186.769 7.82803 186.663 8.05315 186.49 8.21484C186.317 8.37653 186.091 8.46232 185.86 8.45434H180.957C180.922 8.45434 180.887 8.46918 180.862 8.49561C180.837 8.52203 180.823 8.55787 180.823 8.59525V11.8361C180.823 11.8735 180.837 11.9093 180.862 11.9357C180.887 11.9621 180.922 11.977 180.957 11.977H186.318V13.1775C186.315 13.2997 186.288 13.4199 186.239 13.5311C186.191 13.6423 186.122 13.7423 186.036 13.8252C185.95 13.9082 185.849 13.9723 185.739 14.014C185.629 14.0557 185.513 14.0741 185.396 14.068H180.957C180.922 14.068 180.887 14.0829 180.862 14.1093C180.837 14.1357 180.823 14.1716 180.823 14.2089V17.9007C180.823 17.9192 180.826 17.9375 180.833 17.9546C180.84 17.9717 180.849 17.9872 180.862 18.0003C180.875 18.0134 180.889 18.0238 180.906 18.0309C180.922 18.0379 180.94 18.0416 180.957 18.0416H186.787V19.2196C186.762 19.4604 186.655 19.6836 186.484 19.8474C186.313 20.0113 186.091 20.1046 185.86 20.1101H178.277V7.27073C178.29 7.02604 178.393 6.79612 178.565 6.62982C178.737 6.46353 178.965 6.37398 179.199 6.3802H186.787ZM186.922 6.23929H179.199C178.926 6.22855 178.659 6.33075 178.457 6.52378C178.256 6.71681 178.135 6.98515 178.121 7.27073V20.2341H185.838C186.109 20.2351 186.37 20.1296 186.57 19.9385C186.77 19.7474 186.894 19.4847 186.917 19.2027V17.8725H180.957V14.1808H185.396C185.532 14.1899 185.669 14.1702 185.797 14.1228C185.926 14.0755 186.045 14.0014 186.145 13.9051C186.246 13.8088 186.327 13.6922 186.384 13.5623C186.44 13.4324 186.471 13.292 186.474 13.1493V11.8361H180.957V8.61215H185.86C186.132 8.62294 186.398 8.52151 186.6 8.32968C186.801 8.13784 186.923 7.87093 186.938 7.58636V6.23929H186.922Z" fill="url(#paint26_linear_530_1154)"/>
<path d="M126.736 6.16044C130.667 6.16044 132.064 8.25148 132.064 10.2129V16.2775C132.064 18.2333 130.667 20.3243 126.736 20.3243C122.804 20.3243 121.402 18.2333 121.402 16.2775V10.2129C121.402 8.25148 122.804 6.16044 126.736 6.16044ZM126.736 18.2333C129.157 18.2333 129.519 16.8299 129.519 15.9788V10.4947C129.519 9.65491 129.157 8.24021 126.736 8.24021C124.314 8.24021 123.953 9.638 123.953 10.4947V15.9957C123.953 16.8298 124.314 18.2502 126.736 18.2502M126.736 6.03644C122.707 6.03644 121.267 8.20076 121.267 10.2298V16.2775C121.267 18.3009 122.707 20.4652 126.736 20.4652C130.764 20.4652 132.199 18.3009 132.199 16.2775V10.2129C132.199 8.18385 130.764 6.01953 126.736 6.01953V6.03644ZM126.736 18.2333C124.433 18.2333 124.088 16.92 124.088 16.1366V10.4947C124.088 9.71127 124.433 8.39803 126.736 8.39803C129.039 8.39803 129.432 9.71127 129.432 10.4947V15.9957C129.432 16.7791 129.087 18.0924 126.784 18.0924L126.736 18.2333Z" fill="url(#paint27_linear_530_1154)"/>
<path d="M169.88 20.4652C166.601 20.4652 164.724 18.9378 164.724 16.2775V13.8821C164.724 14.6261 167.545 14.4457 167.545 13.8821V15.697C167.545 17.2469 168.327 18.0304 169.88 18.0304C170.455 18.0361 171.03 17.9985 171.6 17.9176L171.94 17.8725V14.4908C171.941 14.3511 171.974 14.2137 172.037 14.0906C172.307 14.4288 174.561 14.4119 174.561 13.8877V18.5996C174.561 19.3661 173.741 20.082 173.013 20.2003C171.978 20.38 170.93 20.4686 169.88 20.4652Z" fill="#17133B"/>
<path d="M169.88 6.16036C171.37 6.17337 172.858 6.30337 174.329 6.54926L174.184 7.58069C174.093 7.85351 173.921 8.08862 173.693 8.25109C173.465 8.41355 173.192 8.49471 172.916 8.48249H172.792C171.789 8.38104 170.57 8.32468 169.88 8.32468C168.262 8.32468 167.41 9.13066 167.41 10.7201V15.7194C167.41 17.337 168.262 18.1937 169.88 18.1937C170.461 18.2003 171.041 18.1607 171.617 18.0754L171.956 18.0359C171.989 18.0318 172.02 18.0151 172.041 17.9891C172.063 17.9631 172.075 17.9296 172.075 17.895V14.5133C172.108 14.2753 172.219 14.0566 172.389 13.895C172.559 13.7334 172.778 13.6391 173.008 13.6284H174.426V18.5996C174.426 19.2872 173.655 19.9522 172.992 20.065C171.964 20.2498 170.923 20.346 169.88 20.3524C166.687 20.3524 164.859 18.8814 164.859 16.3056V10.2128C164.859 7.60324 166.644 6.16036 169.88 6.16036ZM169.88 6.01945C166.553 6.01945 164.724 7.50742 164.724 10.2128V16.2774C164.724 18.9377 166.601 20.4651 169.88 20.4651C170.931 20.4592 171.979 20.3612 173.013 20.1721C173.741 20.0537 174.561 19.3379 174.561 18.5714V13.4649H173.008C172.74 13.4724 172.484 13.58 172.286 13.7683C172.088 13.9566 171.962 14.213 171.929 14.4907V17.8725L171.59 17.9176C171.023 17.9998 170.452 18.0393 169.88 18.0359C168.327 18.0359 167.545 17.2525 167.545 15.7025V10.7088C167.545 10.1452 167.545 8.45431 169.88 8.45431C170.565 8.45431 171.784 8.51067 172.776 8.61212H172.916C173.225 8.62501 173.53 8.53165 173.783 8.34636C174.036 8.16107 174.224 7.89408 174.319 7.58633C174.383 7.13543 174.443 6.69016 174.48 6.41962C172.959 6.15889 171.421 6.02134 169.88 6.00818V6.01945Z" fill="url(#paint28_linear_530_1154)"/>
<path d="M110.46 20.251V13.8989C110.46 14.5302 113.275 14.5415 113.275 13.8989V17.8838H119.127V19.2195C119.104 19.5016 118.98 19.7643 118.78 19.9554C118.58 20.1465 118.319 20.252 118.048 20.251H110.46Z" fill="#17133B"/>
<path d="M113.14 6.38029V17.8726C113.137 17.8911 113.138 17.9101 113.142 17.9284C113.146 17.9468 113.153 17.964 113.164 17.9793C113.174 17.9945 113.188 18.0074 113.203 18.0171C113.218 18.0269 113.236 18.0333 113.253 18.036H118.97V19.2197C118.952 19.4624 118.847 19.6891 118.676 19.8543C118.505 20.0195 118.281 20.1109 118.048 20.1102H110.595V7.27081C110.624 7.0318 110.733 6.81126 110.903 6.64827C111.072 6.48527 111.292 6.39034 111.522 6.38029H113.14ZM113.275 6.23938H111.522C111.253 6.24581 110.996 6.35388 110.798 6.54355C110.599 6.73321 110.474 6.9916 110.444 7.27081V20.2342H118.053C118.324 20.2352 118.585 20.1297 118.785 19.9386C118.985 19.7475 119.109 19.4848 119.132 19.2027V17.8726H113.253V6.23938H113.275Z" fill="url(#paint29_linear_530_1154)"/>
<path d="M188.955 1.97271C190.87 1.97271 191.112 3.20704 191.112 12.9972C191.112 17.2695 191.08 20.4314 190.67 22.2576C190.298 23.9033 189.748 24.0273 188.955 24.0273H103.034V1.97271H188.955ZM188.955 0.845459H103.034V25.1546H188.955C192.013 25.1546 192.191 22.1674 192.191 12.9972C192.191 3.82703 192.191 0.845459 188.955 0.845459Z" fill="url(#paint30_linear_530_1154)"/>
</g>
<defs>
<linearGradient id="paint0_linear_530_1154" x1="96.5026" y1="25.1546" x2="96.5026" y2="0.845459" gradientUnits="userSpaceOnUse">
<stop offset="0.01" stop-color="#221E53"/>
<stop offset="0.1" stop-color="#222860"/>
<stop offset="0.35" stop-color="#23417E"/>
<stop offset="0.57" stop-color="#235091"/>
<stop offset="0.72" stop-color="#235598"/>
<stop offset="0.86" stop-color="#235396"/>
<stop offset="0.94" stop-color="#254B8F"/>
<stop offset="1" stop-color="#273D83"/>
</linearGradient>
<linearGradient id="paint1_linear_530_1154" x1="96.5025" y1="25.4363" x2="96.5025" y2="0.563599" gradientUnits="userSpaceOnUse">
<stop offset="0.01" stop-color="#221E53"/>
<stop offset="0.1" stop-color="#222860"/>
<stop offset="0.35" stop-color="#23417E"/>
<stop offset="0.57" stop-color="#235091"/>
<stop offset="0.72" stop-color="#235598"/>
<stop offset="0.86" stop-color="#235396"/>
<stop offset="0.94" stop-color="#254B8F"/>
<stop offset="1" stop-color="#273D83"/>
</linearGradient>
<linearGradient id="paint2_linear_530_1154" x1="147.612" y1="25.1546" x2="147.612" y2="0.845459" gradientUnits="userSpaceOnUse">
<stop stop-color="#B9B7D3"/>
<stop offset="0.08" stop-color="#CFCEE1"/>
<stop offset="0.17" stop-color="#E4E4EE"/>
<stop offset="0.28" stop-color="#F3F3F8"/>
<stop offset="0.4" stop-color="#FCFCFD"/>
<stop offset="0.58" stop-color="white"/>
<stop offset="0.65" stop-color="#F9F9FB"/>
<stop offset="0.75" stop-color="#E8E8EF"/>
<stop offset="0.78" stop-color="#E2E2EA"/>
</linearGradient>
<linearGradient id="paint3_linear_530_1154" x1="51.8375" y1="25.1546" x2="51.8375" y2="0.845459" gradientUnits="userSpaceOnUse">
<stop offset="0.01" stop-color="#221E53"/>
<stop offset="0.1" stop-color="#222860"/>
<stop offset="0.35" stop-color="#23417E"/>
<stop offset="0.57" stop-color="#235091"/>
<stop offset="0.72" stop-color="#235598"/>
<stop offset="0.86" stop-color="#235396"/>
<stop offset="0.94" stop-color="#254B8F"/>
<stop offset="1" stop-color="#273D83"/>
</linearGradient>
<linearGradient id="paint4_linear_530_1154" x1="12.1126" y1="20.6568" x2="12.1126" y2="5.8335" gradientUnits="userSpaceOnUse">
<stop stop-color="#B9B7D3"/>
<stop offset="0.04" stop-color="#C1BFD8"/>
<stop offset="0.21" stop-color="#DCDBE9"/>
<stop offset="0.38" stop-color="#EFEFF5"/>
<stop offset="0.55" stop-color="#FBFBFD"/>
<stop offset="0.72" stop-color="white"/>
<stop offset="0.84" stop-color="#FDFCFD"/>
<stop offset="0.91" stop-color="#F5F4F8"/>
<stop offset="0.96" stop-color="#EAE8F1"/>
</linearGradient>
<linearGradient id="paint5_linear_530_1154" x1="25.3635" y1="20.871" x2="25.3635" y2="5.8335" gradientUnits="userSpaceOnUse">
<stop stop-color="#B9B7D3"/>
<stop offset="0.04" stop-color="#C1BFD8"/>
<stop offset="0.21" stop-color="#DCDBE9"/>
<stop offset="0.38" stop-color="#EFEFF5"/>
<stop offset="0.55" stop-color="#FBFBFD"/>
<stop offset="0.72" stop-color="white"/>
<stop offset="0.84" stop-color="#FDFCFD"/>
<stop offset="0.91" stop-color="#F5F4F8"/>
<stop offset="0.96" stop-color="#EAE8F1"/>
</linearGradient>
<linearGradient id="paint6_linear_530_1154" x1="40.0754" y1="20.6568" x2="40.0754" y2="5.8335" gradientUnits="userSpaceOnUse">
<stop stop-color="#B9B7D3"/>
<stop offset="0.04" stop-color="#C1BFD8"/>
<stop offset="0.21" stop-color="#DCDBE9"/>
<stop offset="0.38" stop-color="#EFEFF5"/>
<stop offset="0.55" stop-color="#FBFBFD"/>
<stop offset="0.72" stop-color="white"/>
<stop offset="0.84" stop-color="#FDFCFD"/>
<stop offset="0.91" stop-color="#F5F4F8"/>
<stop offset="0.96" stop-color="#EAE8F1"/>
</linearGradient>
<linearGradient id="paint7_linear_530_1154" x1="53.6284" y1="20.6568" x2="53.6284" y2="5.8335" gradientUnits="userSpaceOnUse">
<stop stop-color="#B9B7D3"/>
<stop offset="0.04" stop-color="#C1BFD8"/>
<stop offset="0.21" stop-color="#DCDBE9"/>
<stop offset="0.38" stop-color="#EFEFF5"/>
<stop offset="0.55" stop-color="#FBFBFD"/>
<stop offset="0.72" stop-color="white"/>
<stop offset="0.84" stop-color="#FDFCFD"/>
<stop offset="0.91" stop-color="#F5F4F8"/>
<stop offset="0.96" stop-color="#EAE8F1"/>
</linearGradient>
<linearGradient id="paint8_linear_530_1154" x1="65.7733" y1="20.6568" x2="65.7733" y2="5.83348" gradientUnits="userSpaceOnUse">
<stop stop-color="#B9B7D3"/>
<stop offset="0.04" stop-color="#C1BFD8"/>
<stop offset="0.21" stop-color="#DCDBE9"/>
<stop offset="0.38" stop-color="#EFEFF5"/>
<stop offset="0.55" stop-color="#FBFBFD"/>
<stop offset="0.72" stop-color="white"/>
<stop offset="0.84" stop-color="#FDFCFD"/>
<stop offset="0.91" stop-color="#F5F4F8"/>
<stop offset="0.96" stop-color="#EAE8F1"/>
</linearGradient>
<linearGradient id="paint9_linear_530_1154" x1="79.2884" y1="20.6568" x2="79.2884" y2="5.8335" gradientUnits="userSpaceOnUse">
<stop stop-color="#B9B7D3"/>
<stop offset="0.04" stop-color="#C1BFD8"/>
<stop offset="0.21" stop-color="#DCDBE9"/>
<stop offset="0.38" stop-color="#EFEFF5"/>
<stop offset="0.55" stop-color="#FBFBFD"/>
<stop offset="0.72" stop-color="white"/>
<stop offset="0.84" stop-color="#FDFCFD"/>
<stop offset="0.91" stop-color="#F5F4F8"/>
<stop offset="0.96" stop-color="#EAE8F1"/>
</linearGradient>
<linearGradient id="paint10_linear_530_1154" x1="92.0317" y1="20.871" x2="92.0317" y2="5.61365" gradientUnits="userSpaceOnUse">
<stop stop-color="#B9B7D3"/>
<stop offset="0.04" stop-color="#C1BFD8"/>
<stop offset="0.21" stop-color="#DCDBE9"/>
<stop offset="0.38" stop-color="#EFEFF5"/>
<stop offset="0.55" stop-color="#FBFBFD"/>
<stop offset="0.72" stop-color="white"/>
<stop offset="0.84" stop-color="#FDFCFD"/>
<stop offset="0.91" stop-color="#F5F4F8"/>
<stop offset="0.96" stop-color="#EAE8F1"/>
</linearGradient>
<linearGradient id="paint11_linear_530_1154" x1="12.1126" y1="20.251" x2="12.1126" y2="6.23928" gradientUnits="userSpaceOnUse">
<stop offset="0.04" stop-color="white"/>
<stop offset="1" stop-color="#0D76BD"/>
</linearGradient>
<linearGradient id="paint12_linear_530_1154" x1="25.3634" y1="20.4651" x2="25.3634" y2="6.23926" gradientUnits="userSpaceOnUse">
<stop offset="0.04" stop-color="white"/>
<stop offset="1" stop-color="#0D76BD"/>
</linearGradient>
<linearGradient id="paint13_linear_530_1154" x1="40.0753" y1="20.2511" x2="40.0753" y2="6.23938" gradientUnits="userSpaceOnUse">
<stop offset="0.04" stop-color="white"/>
<stop offset="1" stop-color="#0D76BD"/>
</linearGradient>
<linearGradient id="paint14_linear_530_1154" x1="53.6279" y1="20.251" x2="53.6279" y2="6.23926" gradientUnits="userSpaceOnUse">
<stop offset="0.04" stop-color="white"/>
<stop offset="1" stop-color="#0D76BD"/>
</linearGradient>
<linearGradient id="paint15_linear_530_1154" x1="65.7733" y1="20.251" x2="65.7733" y2="6.23929" gradientUnits="userSpaceOnUse">
<stop offset="0.04" stop-color="white"/>
<stop offset="1" stop-color="#0D76BD"/>
</linearGradient>
<linearGradient id="paint16_linear_530_1154" x1="79.2452" y1="20.251" x2="79.2452" y2="6.23929" gradientUnits="userSpaceOnUse">
<stop offset="0.04" stop-color="white"/>
<stop offset="1" stop-color="#0D76BD"/>
</linearGradient>
<linearGradient id="paint17_linear_530_1154" x1="92.0533" y1="20.4652" x2="92.0533" y2="6.01946" gradientUnits="userSpaceOnUse">
<stop offset="0.04" stop-color="white"/>
<stop offset="1" stop-color="#0D76BD"/>
</linearGradient>
<linearGradient id="paint18_linear_530_1154" x1="140.806" y1="20.871" x2="140.806" y2="5.83349" gradientUnits="userSpaceOnUse">
<stop offset="0.01" stop-color="#221F54"/>
<stop offset="0.19" stop-color="#223672"/>
<stop offset="0.37" stop-color="#234787"/>
<stop offset="0.55" stop-color="#235294"/>
<stop offset="0.71" stop-color="#235598"/>
<stop offset="0.84" stop-color="#245295"/>
<stop offset="0.94" stop-color="#25488D"/>
<stop offset="1" stop-color="#273D83"/>
</linearGradient>
<linearGradient id="paint19_linear_530_1154" x1="155.519" y1="20.6568" x2="155.519" y2="5.8335" gradientUnits="userSpaceOnUse">
<stop offset="0.01" stop-color="#221F54"/>
<stop offset="0.19" stop-color="#223672"/>
<stop offset="0.37" stop-color="#234787"/>
<stop offset="0.55" stop-color="#235294"/>
<stop offset="0.71" stop-color="#235598"/>
<stop offset="0.84" stop-color="#245295"/>
<stop offset="0.94" stop-color="#25488D"/>
<stop offset="1" stop-color="#273D83"/>
</linearGradient>
<linearGradient id="paint20_linear_530_1154" x1="182.532" y1="20.6569" x2="182.532" y2="5.83355" gradientUnits="userSpaceOnUse">
<stop offset="0.01" stop-color="#221F54"/>
<stop offset="0.19" stop-color="#223672"/>
<stop offset="0.37" stop-color="#234787"/>
<stop offset="0.55" stop-color="#235294"/>
<stop offset="0.71" stop-color="#235598"/>
<stop offset="0.84" stop-color="#245295"/>
<stop offset="0.94" stop-color="#25488D"/>
<stop offset="1" stop-color="#273D83"/>
</linearGradient>
<linearGradient id="paint21_linear_530_1154" x1="126.758" y1="20.871" x2="126.758" y2="5.61369" gradientUnits="userSpaceOnUse">
<stop offset="0.01" stop-color="#221F54"/>
<stop offset="0.19" stop-color="#223672"/>
<stop offset="0.37" stop-color="#234787"/>
<stop offset="0.55" stop-color="#235294"/>
<stop offset="0.71" stop-color="#235598"/>
<stop offset="0.84" stop-color="#245295"/>
<stop offset="0.94" stop-color="#25488D"/>
<stop offset="1" stop-color="#273D83"/>
</linearGradient>
<linearGradient id="paint22_linear_530_1154" x1="169.616" y1="20.871" x2="169.616" y2="5.61369" gradientUnits="userSpaceOnUse">
<stop offset="0.01" stop-color="#221F54"/>
<stop offset="0.19" stop-color="#223672"/>
<stop offset="0.37" stop-color="#234787"/>
<stop offset="0.55" stop-color="#235294"/>
<stop offset="0.71" stop-color="#235598"/>
<stop offset="0.84" stop-color="#245295"/>
<stop offset="0.94" stop-color="#25488D"/>
<stop offset="1" stop-color="#273D83"/>
</linearGradient>
<linearGradient id="paint23_linear_530_1154" x1="114.796" y1="20.6568" x2="114.796" y2="5.8335" gradientUnits="userSpaceOnUse">
<stop offset="0.01" stop-color="#221F54"/>
<stop offset="0.19" stop-color="#223672"/>
<stop offset="0.37" stop-color="#234787"/>
<stop offset="0.55" stop-color="#235294"/>
<stop offset="0.71" stop-color="#235598"/>
<stop offset="0.84" stop-color="#245295"/>
<stop offset="0.94" stop-color="#25488D"/>
<stop offset="1" stop-color="#273D83"/>
</linearGradient>
<linearGradient id="paint24_linear_530_1154" x1="140.806" y1="20.4651" x2="140.806" y2="6.23926" gradientUnits="userSpaceOnUse">
<stop offset="0.11" stop-color="#273D83"/>
<stop offset="0.21" stop-color="#244389"/>
<stop offset="0.34" stop-color="#1D549A"/>
<stop offset="0.49" stop-color="#106FB6"/>
<stop offset="0.52" stop-color="#0D76BD"/>
<stop offset="0.9" stop-color="#29ABE2"/>
<stop offset="0.95" stop-color="white"/>
</linearGradient>
<linearGradient id="paint25_linear_530_1154" x1="155.519" y1="20.2511" x2="155.519" y2="6.23938" gradientUnits="userSpaceOnUse">
<stop offset="0.11" stop-color="#273D83"/>
<stop offset="0.21" stop-color="#244389"/>
<stop offset="0.34" stop-color="#1D549A"/>
<stop offset="0.49" stop-color="#106FB6"/>
<stop offset="0.52" stop-color="#0D76BD"/>
<stop offset="0.9" stop-color="#29ABE2"/>
<stop offset="0.95" stop-color="white"/>
</linearGradient>
<linearGradient id="paint26_linear_530_1154" x1="182.532" y1="20.251" x2="182.532" y2="6.23929" gradientUnits="userSpaceOnUse">
<stop offset="0.11" stop-color="#273D83"/>
<stop offset="0.21" stop-color="#244389"/>
<stop offset="0.34" stop-color="#1D549A"/>
<stop offset="0.49" stop-color="#106FB6"/>
<stop offset="0.52" stop-color="#0D76BD"/>
<stop offset="0.9" stop-color="#29ABE2"/>
<stop offset="0.95" stop-color="white"/>
</linearGradient>
<linearGradient id="paint27_linear_530_1154" x1="126.757" y1="20.4652" x2="126.757" y2="6.01953" gradientUnits="userSpaceOnUse">
<stop offset="0.11" stop-color="#273D83"/>
<stop offset="0.21" stop-color="#244389"/>
<stop offset="0.34" stop-color="#1D549A"/>
<stop offset="0.49" stop-color="#106FB6"/>
<stop offset="0.52" stop-color="#0D76BD"/>
<stop offset="0.9" stop-color="#29ABE2"/>
<stop offset="0.95" stop-color="white"/>
</linearGradient>
<linearGradient id="paint28_linear_530_1154" x1="169.616" y1="20.4651" x2="169.616" y2="6.01945" gradientUnits="userSpaceOnUse">
<stop offset="0.11" stop-color="#273D83"/>
<stop offset="0.21" stop-color="#244389"/>
<stop offset="0.34" stop-color="#1D549A"/>
<stop offset="0.49" stop-color="#106FB6"/>
<stop offset="0.52" stop-color="#0D76BD"/>
<stop offset="0.9" stop-color="#29ABE2"/>
<stop offset="0.95" stop-color="white"/>
</linearGradient>
<linearGradient id="paint29_linear_530_1154" x1="114.796" y1="20.2511" x2="114.796" y2="6.23938" gradientUnits="userSpaceOnUse">
<stop offset="0.11" stop-color="#273D83"/>
<stop offset="0.21" stop-color="#244389"/>
<stop offset="0.34" stop-color="#1D549A"/>
<stop offset="0.49" stop-color="#106FB6"/>
<stop offset="0.52" stop-color="#0D76BD"/>
<stop offset="0.9" stop-color="#29ABE2"/>
<stop offset="0.95" stop-color="white"/>
</linearGradient>
<linearGradient id="paint30_linear_530_1154" x1="147.612" y1="25.1546" x2="147.612" y2="0.845459" gradientUnits="userSpaceOnUse">
<stop stop-color="#B9B7D3"/>
<stop offset="0.08" stop-color="#CFCEE1"/>
<stop offset="0.17" stop-color="#E4E4EE"/>
<stop offset="0.28" stop-color="#F3F3F8"/>
<stop offset="0.4" stop-color="#FCFCFD"/>
<stop offset="0.58" stop-color="white"/>
<stop offset="0.65" stop-color="#F9F9FB"/>
<stop offset="0.75" stop-color="#E8E8EF"/>
<stop offset="0.78" stop-color="#E2E2EA"/>
</linearGradient>
<clipPath id="clip0_530_1154">
<rect width="193" height="26" fill="white"/>
</clipPath>
</defs>
</svg>
