<svg width="20" height="16" viewBox="0 0 20 16" fill="none" xmlns="http://www.w3.org/2000/svg">
<path d="M0.261924 8.75963L5.86214 15.5597C6.3256 16.0784 7.06837 16.1277 7.55609 15.7285C8.04382 15.3292 8.12418 14.5222 7.72462 14.0345L3.73686 9.1968L18.7999 9.1968C19.4626 9.1968 20 8.65941 20 7.99672C20 7.33402 19.4626 6.79663 18.7999 6.79663L3.73686 6.79663L7.72462 1.95892C8.1239 1.47147 8.03406 0.675688 7.55609 0.264968C7.06306 -0.158587 6.26143 -0.0539502 5.86214 0.433779L0.261924 7.2338C-0.102759 7.74636 -0.0715094 8.2631 0.261924 8.75896L0.261924 8.75963Z" fill="white"/>
</svg>
